<svg width="25" height="25" viewBox="0 0 25 25" fill="none" xmlns="http://www.w3.org/2000/svg">
<g clip-path="url(#clip0_172_2142)">
<path d="M18.6242 18.5415C17.0952 18.5401 15.8544 19.7784 15.8529 21.3075C15.8514 22.8365 17.0898 24.0773 18.6189 24.0788C20.1479 24.0802 21.3887 22.8419 21.3902 21.3128V21.3102C21.3887 19.7827 20.1516 18.5445 18.6242 18.5415Z" fill="#B1B1B1"/>
<path d="M23.5348 5.28384C23.4686 5.27101 23.4012 5.26449 23.3338 5.26439H6.4764L6.20941 3.47825C6.04307 2.29205 5.02842 1.40948 3.83059 1.40912H1.65998C1.07016 1.40912 0.592041 1.88724 0.592041 2.47706C0.592041 3.06687 1.07016 3.545 1.65998 3.545H3.83325C3.96903 3.544 4.08396 3.64511 4.10023 3.77996L5.74485 15.052C5.97032 16.4844 7.20236 17.541 8.65232 17.5457H19.7615C21.1575 17.5475 22.3618 16.5664 22.6423 15.1989L24.3804 6.53522C24.4924 5.95615 24.1139 5.3959 23.5348 5.28384Z" fill="#B1B1B1"/>
<path d="M11.8418 21.1916C11.7767 19.7074 10.5518 18.539 9.06617 18.5442C7.53835 18.6059 6.34985 19.8945 6.41159 21.4223C6.47083 22.8883 7.66335 24.0535 9.13025 24.0788H9.197C10.7246 24.0118 11.9087 22.7192 11.8418 21.1916Z" fill="#B1B1B1"/>
</g>
<defs>
<clipPath id="clip0_172_2142">
<rect width="23.808" height="23.808" fill="white" transform="translate(0.592041 0.839996)"/>
</clipPath>
</defs>
</svg>
