<svg width="22" height="22" viewBox="0 0 22 22" fill="none" xmlns="http://www.w3.org/2000/svg">
<path d="M21.0524 11.535C20.9966 11.6709 20.9018 11.7872 20.78 11.8693C20.6582 11.9514 20.5148 11.9956 20.3679 11.9963H18.1359V19.4363C18.1359 20.0283 17.9007 20.596 17.4822 21.0146C17.0636 21.4332 16.4959 21.6683 15.9039 21.6683H12.9279C12.7306 21.6683 12.5413 21.5899 12.4018 21.4504C12.2623 21.3109 12.1839 21.1216 12.1839 20.9243V16.4603C12.1839 16.263 12.1055 16.0738 11.966 15.9342C11.8265 15.7947 11.6372 15.7163 11.4399 15.7163H9.9519C9.75458 15.7163 9.56534 15.7947 9.42581 15.9342C9.28629 16.0738 9.2079 16.263 9.2079 16.4603V20.9243C9.2079 21.1216 9.12951 21.3109 8.98999 21.4504C8.85046 21.5899 8.66122 21.6683 8.4639 21.6683H5.4879C4.89594 21.6683 4.32822 21.4332 3.90964 21.0146C3.49106 20.596 3.2559 20.0283 3.2559 19.4363V11.9963H1.0239C0.877016 11.9956 0.733635 11.9514 0.611827 11.8693C0.49002 11.7872 0.395236 11.6709 0.339421 11.535C0.282446 11.3995 0.266879 11.2502 0.294685 11.1059C0.322492 10.9616 0.392425 10.8287 0.495661 10.7241L10.1677 1.05207C10.2368 0.982341 10.3191 0.926991 10.4098 0.889219C10.5004 0.851448 10.5977 0.832001 10.6959 0.832001C10.7941 0.832001 10.8914 0.851448 10.982 0.889219C11.0727 0.926991 11.155 0.982341 11.2241 1.05207L20.8961 10.7241C20.9994 10.8287 21.0693 10.9616 21.0971 11.1059C21.1249 11.2502 21.1094 11.3995 21.0524 11.535Z" fill="#B1B1B1"/>
</svg>
