<svg width="73" height="73" viewBox="0 0 73 73" fill="none" xmlns="http://www.w3.org/2000/svg">
<path d="M71.6135 46.6371C71.9358 43.7422 70.4454 40.3612 67.4085 38.2042C71.7328 34.6018 74.0573 28.774 69.9203 23.636C72.4197 18.5815 71.6358 11.9209 68.0777 7.74639C64.0434 2.85417 57.2764 0.859427 51.2909 0.968458C43.1629 1.08541 35.789 4.65528 27.7388 4.95878C19.4205 5.06831 4.13533 7.78717 5.49294 21.5417C5.66446 22.7335 6.00526 23.826 6.51507 24.8315C5.22696 27.0076 5.11374 28.8281 5.29563 30.4846C-1.53347 34.8244 -0.972374 42.6266 4.9432 47.4876C5.21828 49.0316 5.88237 50.5572 6.86246 51.95C3.2354 57.3124 6.08682 63.1469 10.7022 66.4694C14.1506 68.8981 18.1465 69.9653 21.6211 70.7749C32.5963 73.4066 44.8833 73.3008 55.674 70.7749C59.1487 69.9651 63.1446 68.8979 66.5928 66.4694C71.4242 62.9971 74.2686 56.7797 69.9783 51.3529C70.9053 49.8644 71.4777 48.2492 71.6135 46.6371ZM12.5446 27.6318C10.0929 26.163 7.91387 24.105 7.5627 21.1117C7.18378 18.4762 7.93321 15.6987 9.51839 13.8629C11.9053 11.0985 16.1401 7.8753 27.7973 7.48367C31.7928 7.34953 35.6928 6.39556 39.4645 5.47309C48.5792 2.88972 59.9524 1.81357 66.5935 9.53368C70.7345 14.3265 69.9413 22.45 65.1143 26.1252C55.4953 34.2911 37.2101 33.5622 25.4905 31.844C22.229 31.4364 19.4203 30.7667 16.904 29.7969C16.3518 29.5839 15.7605 29.9499 15.5835 30.614C15.4065 31.2781 15.7107 31.9891 16.263 32.2019C18.9188 33.2253 21.8661 33.9301 25.2731 34.3564C37.9251 36.1476 55.9537 36.8208 66.263 28.2393C67.1759 27.5224 67.9845 26.6734 68.6746 25.7228C69.6444 26.9991 70.074 28.3887 69.9499 29.8641C69.0788 36.8827 60.273 39.5938 55.2747 40.6479C44.7383 43.1131 32.7423 43.2184 22.021 40.6479C18.7169 39.8781 14.9268 38.8702 11.7642 36.6427C8.53088 34.2971 6.20481 30.5311 7.90224 26.8899C8.89943 28.0638 10.2852 29.0621 11.5741 29.8715C12.8286 30.5926 13.7553 28.4551 12.5446 27.6318ZM6.86147 45.9599C1.74368 42.2045 0.586885 36.6203 5.93674 32.948C8.4709 39.4873 16.3444 41.9926 21.6217 43.1274C32.5979 45.7592 44.8832 45.6535 55.6744 43.1274C58.6104 42.4432 61.9174 41.5718 64.953 39.854C63.4752 46.4833 55.3049 48.8809 50.3723 49.9652C39.8366 52.4306 27.8389 52.5354 17.1186 49.9653C13.8142 49.1952 10.024 48.1873 6.86147 45.9599ZM69.9494 57.5115C69.0761 64.5305 60.2742 67.2407 55.2744 68.2955C44.738 70.7607 32.7416 70.8659 22.0206 68.2956C17.0266 67.2453 8.20633 64.5256 7.34549 57.5115C7.23297 56.1744 7.57657 54.908 8.36384 53.732C11.9462 57.2798 17.0815 58.6902 21.1955 59.6465C29.2277 61.5479 37.7386 62.0334 45.9183 61.1876C46.4962 61.1294 46.9255 60.5187 46.877 59.8238C46.8286 59.1286 46.3204 58.6126 45.7429 58.6709C37.7493 59.4972 29.446 59.025 21.595 57.1669C17.0511 56.0893 10.7783 54.4558 7.91555 49.4343C10.8184 50.9807 13.9354 51.7964 16.7187 52.4451C27.6933 55.0765 39.9812 54.9711 50.7714 52.4451C56.338 51.3054 65.175 48.2943 66.9093 40.8351C71.4491 44.5782 69.5885 49.9573 65.1056 53.1618C60.5043 56.261 55.5251 57.0552 50.57 58.0238C49.9956 58.1204 49.5951 58.7587 49.6756 59.4493C49.756 60.1399 50.2858 60.6219 50.8611 60.525C56.6283 59.3959 63.8709 58.2294 68.5614 53.226C69.6106 54.5414 70.0782 55.9802 69.9494 57.5115Z" fill="#E67F1E"/>
<path d="M14.9264 16.09C15.4107 16.4734 16.0619 16.312 16.3808 15.7297C16.646 15.2455 17.0914 14.9564 17.5725 14.9564C18.057 14.9564 18.5043 15.2487 18.7688 15.7383C19.0868 16.3277 19.7421 16.4859 20.2216 16.1092C20.7078 15.7292 20.846 14.9473 20.53 14.3625C19.8764 13.1533 18.7709 12.4313 17.5725 12.4313C16.3828 12.4313 15.2816 13.1454 14.6268 14.3413C14.3078 14.9235 14.4419 15.7065 14.9264 16.09Z" fill="#E67F1E"/>
<path d="M20.1888 22.542C19.465 23.9695 21.1385 25.2947 21.9431 23.9303C22.2081 23.4462 22.6536 23.1571 23.1347 23.1571C23.6193 23.1571 24.0664 23.4494 24.331 23.939C24.649 24.5286 25.3042 24.6868 25.7836 24.3099C26.27 23.9299 26.4081 23.148 26.0921 22.5634C25.4386 21.3542 24.3331 20.632 23.1347 20.632C21.945 20.632 20.8437 21.3461 20.1888 22.542Z" fill="#E67F1E"/>
<path d="M45.3665 19.9475C45.8508 20.3308 46.5021 20.1696 46.8209 19.5871C47.0859 19.1029 47.5314 18.8139 48.0125 18.8139C48.497 18.8139 48.9442 19.1063 49.2088 19.5959C49.5266 20.1854 50.182 20.3436 50.6614 19.9667C51.1478 19.5869 51.2858 18.8048 50.9698 18.2202C50.3164 17.011 49.2109 16.2889 48.0125 16.2889C46.8227 16.2889 45.7214 17.0029 45.0666 18.199C44.7478 18.7811 44.882 19.5642 45.3665 19.9475Z" fill="#E67F1E"/>
<path d="M34.6305 30.2763C35.1147 30.6598 35.766 30.4985 36.085 29.9161C36.3501 29.4318 36.7956 29.1427 37.2767 29.1427C37.7611 29.1427 38.2084 29.435 38.473 29.9247C38.7909 30.5142 39.4462 30.6724 39.9256 30.2955C40.412 29.9156 40.55 29.1336 40.234 28.549C39.5806 27.3398 38.4749 26.6176 37.2765 26.6176C36.0868 26.6176 34.9856 27.3317 34.3308 28.5276C34.012 29.1099 34.1461 29.8928 34.6305 30.2763Z" fill="#E67F1E"/>
<path d="M37.6444 12.9736C38.1287 13.357 38.7799 13.1956 39.0989 12.6133C39.364 12.1291 39.8095 11.84 40.2904 11.84C40.775 11.84 41.2222 12.1323 41.4867 12.6219C41.8047 13.2113 42.46 13.3695 42.9395 12.9928C43.4258 12.6128 43.5639 11.8309 43.2479 11.2461C42.5944 10.0369 41.4888 9.31492 40.2904 9.31492C39.1007 9.31492 37.9995 10.029 37.3447 11.2249C37.0259 11.8071 37.16 12.5901 37.6444 12.9736Z" fill="#E67F1E"/>
<path d="M57.0078 14.733C57.4922 15.1164 58.1434 14.9551 58.4622 14.3727C58.7272 13.8884 59.1727 13.5995 59.6537 13.5995C60.1383 13.5995 60.5855 13.8918 60.8501 14.3814C61.168 14.9709 61.8233 15.1292 62.3027 14.7523C62.7891 14.3725 62.9271 13.5904 62.6111 13.0057C61.9577 11.7965 60.8522 11.0744 59.6537 11.0744C58.464 11.0744 57.3627 11.7884 56.7079 12.9845C56.3892 13.5668 56.5233 14.3497 57.0078 14.733Z" fill="#E67F1E"/>
</svg>
