<svg width="73" height="73" viewBox="0 0 73 73" fill="none" xmlns="http://www.w3.org/2000/svg">
<path d="M72.2775 31.0258C72.2192 30.6815 72.0521 30.3697 71.8042 30.1436C69.4837 28.0269 69.0919 25.6928 68.777 23.8175L68.7358 23.5732C68.6271 22.9331 68.1504 22.4399 67.5529 22.3492C67.3466 22.318 67.1283 22.302 66.9039 22.302C65.5704 22.302 63.6915 22.9079 62.5003 24.2613C62.2971 24.4923 62.1667 24.7867 62.1277 25.1023C62.0275 25.9143 61.976 26.6574 61.9306 27.3131C61.7589 29.7837 61.6071 30.0457 60.9092 30.2839C60.4717 30.4331 60.1298 30.8038 59.9937 31.2761C59.3364 33.5581 58.4641 35.7418 57.4084 37.802C56.887 36.7286 56.3108 35.7631 55.7745 34.8646C54.4629 32.6673 53.4268 30.9315 53.7808 28.7802C54.9278 21.8078 54.3456 16.5556 52.0498 13.1691C50.7713 11.2832 48.9499 9.99751 46.7365 9.39688C47.177 5.69008 49.5659 4.00954 50.8883 3.6274C51.6358 3.41148 52.0795 2.58284 51.8791 1.77672C51.6787 0.970747 50.9103 0.491908 50.163 0.708285C47.4326 1.49718 44.5161 4.39333 43.9591 9.01913C41.7227 9.01233 39.6916 9.7488 38.0201 11.1888C34.9659 13.8202 33.1206 18.7101 32.5353 25.7224C32.3591 27.8325 31.0932 29.0637 29.3409 30.7674C27.9107 32.1581 26.3174 33.7108 25.0412 36.0582C23.4514 35.3601 21.7461 34.9072 19.9653 34.7433C20.4701 31.1846 22.7913 29.5596 24.088 29.185C24.8356 28.9691 25.2792 28.1405 25.0788 27.3345C24.8785 26.5284 24.11 26.0497 23.3627 26.2661C22.6586 26.4695 21.9424 26.8147 21.257 27.2919C20.9382 25.5952 20.167 24.0038 18.9992 22.7447C17.4345 21.0575 15.354 20.1284 13.1412 20.1284C12.4168 20.1284 11.6955 20.2304 10.9969 20.4313C10.5125 20.5708 10.134 20.9789 10.0047 21.5013C9.24338 24.5756 10.0654 27.882 12.1499 30.1302C13.6003 31.6942 15.4947 32.6054 17.5266 32.7303C17.3494 33.3556 17.2177 34.021 17.1412 34.7267C8.11018 35.4583 0.969727 43.6153 0.969727 53.5372C0.969727 63.9388 8.81754 72.4012 18.4636 72.4012C22.0486 72.4012 25.4635 71.2523 28.387 69.0728C28.8474 69.2907 29.3094 69.5004 29.7735 69.6977C33.9908 71.4915 38.2529 72.4011 42.4411 72.4011C49.1779 72.4011 55.4303 70.0276 60.5226 65.537C65.845 60.8434 69.7677 53.8983 71.8663 45.4527C72.5511 42.6981 73.1551 36.2078 72.2775 31.0258ZM31.218 33.0118C33.1028 31.179 35.0518 29.2837 35.3266 25.9935C35.8407 19.8339 37.3355 15.6472 39.7696 13.55C41.2146 12.3051 43.0007 11.8251 45.0787 12.1246C47.131 12.42 48.7153 13.3714 49.7874 14.9529C51.6147 17.6482 52.0299 22.1229 51.0213 28.2525C50.4752 31.5708 51.9712 34.0768 53.4178 36.5004C54.2286 37.8587 55.0632 39.2592 55.6307 40.8893C50.908 48.2434 43.7418 53.6064 35.8564 55.5703C35.9237 54.8961 35.9579 54.2169 35.9579 53.5372C35.9579 46.7212 32.5877 40.7381 27.5501 37.4228C28.5986 35.5621 29.9261 34.2681 31.218 33.0118ZM14.1313 27.9932C12.9541 26.7236 12.3854 24.9435 12.5572 23.1835C12.7509 23.1614 12.9455 23.1501 13.1409 23.1501C14.6051 23.1501 15.9818 23.7649 17.0171 24.8812C18.1944 26.1508 18.7632 27.9311 18.5912 29.6909C18.3977 29.713 18.203 29.7242 18.008 29.7242H18.0078C16.5432 29.7243 15.1665 29.1095 14.1313 27.9932ZM18.4636 69.3792C10.3627 69.3792 3.77227 62.2726 3.77227 53.5372C3.77227 44.8018 10.3627 37.6952 18.4636 37.6952C26.5646 37.6952 33.1552 44.8018 33.1552 53.5372C33.1552 54.4082 33.0892 55.2776 32.9587 56.133C32.0573 56.2584 31.1497 56.338 30.2379 56.3716C30.4299 55.4449 30.5302 54.4979 30.5302 53.5372C30.5302 51.8355 30.2266 50.1743 29.6278 48.6C29.3342 47.8282 28.516 47.4586 27.7996 47.7754C27.0836 48.0921 26.7412 48.9747 27.0349 49.7468C27.4946 50.9555 27.7277 52.2306 27.7277 53.5372C27.7277 54.4873 27.6028 55.4207 27.3587 56.3244C25.3532 56.1853 23.3448 55.8279 21.3659 55.2561C20.9629 55.1396 20.5324 55.223 20.1921 55.4835C18.9466 56.437 17.6914 57.6363 16.947 59.9357C16.7552 60.5283 16.923 61.1871 17.3688 61.5909C19.9429 63.9225 22.6324 65.8991 25.4027 67.5036C23.2821 68.7352 20.921 69.3792 18.4636 69.3792ZM69.1593 44.6708C65.3146 60.1424 55.3266 69.3792 42.4413 69.3792C34.919 69.3792 26.9787 66.0536 19.98 59.993C20.351 59.275 20.8096 58.7807 21.3024 58.3588C23.9337 59.0589 26.6096 59.4134 29.2668 59.4134C36.7873 59.4134 44.0387 56.6499 50.2371 51.4216C53.3884 48.7636 56.1196 45.5607 58.3074 42.0093C58.3335 41.9712 58.358 41.9319 58.3806 41.8914C60.1076 39.066 61.491 36.0218 62.4665 32.8562C64.4304 31.7906 64.5802 29.6323 64.7255 27.5387C64.7587 27.0601 64.7928 26.5693 64.8448 26.0515C65.2175 25.7605 65.7115 25.5301 66.2067 25.4116C66.5801 27.3329 67.3062 29.799 69.6008 32.0762C70.25 36.5279 69.7786 42.1781 69.1593 44.6708Z" fill="#E67F1E"/>
<path d="M46.1611 15.2341C45.4478 14.9119 44.6263 15.2738 44.3269 16.0434C44.0276 16.8129 44.3635 17.6984 45.0773 18.0211C46.0967 18.482 46.6596 21.7988 45.7631 27.2464C45.6279 28.0681 46.136 28.8525 46.8981 28.9983C46.9809 29.0142 47.0633 29.0219 47.1446 29.0219C47.8112 29.0219 48.4023 28.5069 48.5228 27.7747C49.3246 22.9032 49.5656 16.7732 46.1611 15.2341Z" fill="#E67F1E"/>
<path d="M55.4233 58.4824C54.9591 57.8147 54.0792 57.6807 53.4601 58.1816C53.4596 58.1819 53.4535 58.1867 53.4531 58.187C52.829 58.6798 52.696 59.6227 53.1524 60.296C53.4264 60.7 53.8526 60.9138 54.2846 60.9138C54.5725 60.9138 54.8629 60.8189 55.1126 60.6222L55.1447 60.5967C55.7638 60.0959 55.8877 59.1502 55.4233 58.4824Z" fill="#E67F1E"/>
<path d="M52.2075 60.9259C51.8548 60.1831 51.0107 59.8889 50.3217 60.2689C45.5256 62.9144 41.4791 62.8097 41.4194 62.8068C40.6491 62.778 39.9984 63.4253 39.9681 64.2578C39.9379 65.0916 40.5401 65.7941 41.3135 65.8267C41.3349 65.8276 41.4103 65.8304 41.5355 65.8304C42.5369 65.8304 46.7109 65.6549 51.598 62.9591C52.287 62.5794 52.5598 61.6689 52.2075 60.9259Z" fill="#E67F1E"/>
<path d="M27.0388 44.3835L26.9927 44.3337C26.4441 43.7454 25.557 43.7477 25.0111 44.3394C24.4653 44.9311 24.4677 45.8879 25.0164 46.4764L25.0465 46.5089C25.3206 46.8078 25.6816 46.9572 26.0427 46.9572C26.3987 46.9572 26.7551 46.8117 27.0282 46.5204C27.5783 45.9337 27.5831 44.9768 27.0388 44.3835Z" fill="#E67F1E"/>
</svg>
