<svg width="320" height="189" viewBox="0 0 320 189" fill="none" xmlns="http://www.w3.org/2000/svg">
<path d="M27.8454 127.003H75.3699V90.3475H27.8454L27.8454 127.003Z" fill="#F5F5F5"/>
<path d="M39.7532 126.744C39.817 126.744 39.8718 118.572 39.8718 108.497C39.8718 98.4167 39.817 90.2488 39.7532 90.2488C39.6893 90.2488 39.6345 98.4167 39.6345 108.497C39.6345 118.576 39.6847 126.744 39.7532 126.744Z" fill="#EBEBEB"/>
<path d="M31.8762 122.781H35.5176V118.661H31.8762V122.781Z" fill="#FAFAFA"/>
<path d="M60.8713 90.4404H55.4731V98.2615H60.8713V90.4404Z" fill="#EBEBEB"/>
<path d="M60.8713 119.074H55.4731V126.895H60.8713V119.074Z" fill="#EBEBEB"/>
<path d="M93.4839 127.52H15.0264V188.031H93.4839V127.52Z" fill="#EBEBEB"/>
<path d="M73.826 187.607C73.7393 187.607 73.6709 174.118 73.6709 157.486C73.6709 140.844 73.7393 127.36 73.826 127.36C73.9127 127.36 73.9812 140.844 73.9812 157.486C73.9812 174.118 73.9082 187.607 73.826 187.607Z" fill="#E0E0E0"/>
<path d="M86.8266 174.26H80.8125V181.059H86.8266V174.26Z" fill="#FAFAFA"/>
<path d="M47.8717 127.675H38.96V140.589H47.8717V127.675Z" fill="#E0E0E0"/>
<path d="M47.8717 174.939H38.96V187.853H47.8717V174.939Z" fill="#E0E0E0"/>
<path d="M154.78 20.9265C154.78 20.9904 154.269 21.0451 153.639 21.0451C153.009 21.0451 152.498 20.9904 152.498 20.9265C152.498 20.8626 153.009 20.8079 153.639 20.8079C154.269 20.8079 154.78 20.8581 154.78 20.9265Z" fill="#EBEBEB"/>
<path d="M159.343 20.9265C159.343 20.9904 158.832 21.0451 158.202 21.0451C157.572 21.0451 157.061 20.9904 157.061 20.9265C157.061 20.8626 157.572 20.8079 158.202 20.8079C158.832 20.8079 159.343 20.8581 159.343 20.9265Z" fill="#EBEBEB"/>
<path d="M163.906 20.9265C163.906 20.9904 163.394 21.0451 162.765 21.0451C162.135 21.0451 161.624 20.9904 161.624 20.9265C161.624 20.8626 162.135 20.8079 162.765 20.8079C163.394 20.8079 163.906 20.8581 163.906 20.9265Z" fill="#EBEBEB"/>
<path d="M168.469 20.9265C168.469 20.9904 167.958 21.0451 167.328 21.0451C166.698 21.0451 166.187 20.9904 166.187 20.9265C166.187 20.8626 166.698 20.8079 167.328 20.8079C167.958 20.8079 168.469 20.8581 168.469 20.9265Z" fill="#EBEBEB"/>
<path d="M173.032 20.9265C173.032 20.9904 172.521 21.0451 171.891 21.0451C171.262 21.0451 170.75 20.9904 170.75 20.9265C170.75 20.8626 171.262 20.8079 171.891 20.8079C172.521 20.8079 173.032 20.8581 173.032 20.9265Z" fill="#EBEBEB"/>
<path d="M177.595 20.9265C177.595 20.9904 177.084 21.0451 176.454 21.0451C175.825 21.0451 175.313 20.9904 175.313 20.9265C175.313 20.8626 175.825 20.8079 176.454 20.8079C177.084 20.8079 177.595 20.8581 177.595 20.9265Z" fill="#EBEBEB"/>
<path d="M182.158 20.9265C182.158 20.9904 181.647 21.0451 181.017 21.0451C180.388 21.0451 179.877 20.9904 179.877 20.9265C179.877 20.8626 180.388 20.8079 181.017 20.8079C181.647 20.8079 182.158 20.8581 182.158 20.9265Z" fill="#EBEBEB"/>
<path d="M186.721 20.9265C186.721 20.9904 186.21 21.0451 185.58 21.0451C184.951 21.0451 184.44 20.9904 184.44 20.9265C184.44 20.8626 184.951 20.8079 185.58 20.8079C186.21 20.8079 186.721 20.8581 186.721 20.9265Z" fill="#EBEBEB"/>
<path d="M191.284 20.9265C191.284 20.9904 190.773 21.0451 190.143 21.0451C189.514 21.0451 189.002 20.9904 189.002 20.9265C189.002 20.8626 189.514 20.8079 190.143 20.8079C190.773 20.8079 191.284 20.8581 191.284 20.9265Z" fill="#EBEBEB"/>
<path d="M195.847 20.9265C195.847 20.9904 195.336 21.0451 194.706 21.0451C194.077 21.0451 193.566 20.9904 193.566 20.9265C193.566 20.8626 194.077 20.8079 194.706 20.8079C195.336 20.8079 195.847 20.8581 195.847 20.9265Z" fill="#EBEBEB"/>
<path d="M200.41 20.9265C200.41 20.9904 199.899 21.0451 199.269 21.0451C198.64 21.0451 198.129 20.9904 198.129 20.9265C198.129 20.8626 198.64 20.8079 199.269 20.8079C199.899 20.8079 200.41 20.8581 200.41 20.9265Z" fill="#EBEBEB"/>
<path d="M204.973 20.9265C204.973 20.9904 204.462 21.0451 203.833 21.0451C203.203 21.0451 202.692 20.9904 202.692 20.9265C202.692 20.8626 203.203 20.8079 203.833 20.8079C204.462 20.8079 204.973 20.8581 204.973 20.9265Z" fill="#EBEBEB"/>
<path d="M209.537 20.9265C209.537 20.9904 209.026 21.0451 208.396 21.0451C207.766 21.0451 207.255 20.9904 207.255 20.9265C207.255 20.8626 207.766 20.8079 208.396 20.8079C209.026 20.8079 209.537 20.8581 209.537 20.9265Z" fill="#EBEBEB"/>
<path d="M214.1 20.9265C214.1 20.9904 213.589 21.0451 212.959 21.0451C212.329 21.0451 211.818 20.9904 211.818 20.9265C211.818 20.8626 212.329 20.8079 212.959 20.8079C213.589 20.8079 214.1 20.8581 214.1 20.9265Z" fill="#EBEBEB"/>
<path d="M218.662 20.9265C218.662 20.9904 218.151 21.0451 217.522 21.0451C216.892 21.0451 216.381 20.9904 216.381 20.9265C216.381 20.8626 216.892 20.8079 217.522 20.8079C218.151 20.8079 218.662 20.8581 218.662 20.9265Z" fill="#EBEBEB"/>
<path d="M223.225 20.9265C223.225 20.9904 222.714 21.0451 222.085 21.0451C221.455 21.0451 220.944 20.9904 220.944 20.9265C220.944 20.8626 221.455 20.8079 222.085 20.8079C222.714 20.8079 223.225 20.8581 223.225 20.9265Z" fill="#EBEBEB"/>
<path d="M227.789 20.9265C227.789 20.9904 227.278 21.0451 226.648 21.0451C226.018 21.0451 225.507 20.9904 225.507 20.9265C225.507 20.8626 226.018 20.8079 226.648 20.8079C227.278 20.8079 227.789 20.8581 227.789 20.9265Z" fill="#EBEBEB"/>
<path d="M232.352 20.9265C232.352 20.9904 231.841 21.0451 231.212 21.0451C230.582 21.0451 230.071 20.9904 230.071 20.9265C230.071 20.8626 230.582 20.8079 231.212 20.8079C231.841 20.8079 232.352 20.8581 232.352 20.9265Z" fill="#EBEBEB"/>
<path d="M236.915 20.9265C236.915 20.9904 236.404 21.0451 235.775 21.0451C235.145 21.0451 234.634 20.9904 234.634 20.9265C234.634 20.8626 235.145 20.8079 235.775 20.8079C236.404 20.8079 236.915 20.8581 236.915 20.9265Z" fill="#EBEBEB"/>
<path d="M241.478 20.9265C241.478 20.9904 240.967 21.0451 240.337 21.0451C239.708 21.0451 239.197 20.9904 239.197 20.9265C239.197 20.8626 239.708 20.8079 240.337 20.8079C240.967 20.8079 241.478 20.8581 241.478 20.9265Z" fill="#EBEBEB"/>
<path d="M246.042 20.9265C246.042 20.9904 245.53 21.0451 244.901 21.0451C244.271 21.0451 243.76 20.9904 243.76 20.9265C243.76 20.8626 244.271 20.8079 244.901 20.8079C245.53 20.8079 246.042 20.8581 246.042 20.9265Z" fill="#EBEBEB"/>
<path d="M250.604 20.9265C250.604 20.9904 250.093 21.0451 249.464 21.0451C248.834 21.0451 248.323 20.9904 248.323 20.9265C248.323 20.8626 248.834 20.8079 249.464 20.8079C250.093 20.8079 250.604 20.8581 250.604 20.9265Z" fill="#EBEBEB"/>
<path d="M255.168 20.9265C255.168 20.9904 254.656 21.0451 254.027 21.0451C253.397 21.0451 252.886 20.9904 252.886 20.9265C252.886 20.8626 253.397 20.8079 254.027 20.8079C254.656 20.8079 255.168 20.8581 255.168 20.9265Z" fill="#EBEBEB"/>
<path d="M256.335 24.3169C256.272 24.3169 256.217 23.8059 256.217 23.1762C256.217 22.5465 256.272 22.0354 256.335 22.0354C256.399 22.0354 256.454 22.5465 256.454 23.1762C256.454 23.8104 256.399 24.3169 256.335 24.3169Z" fill="#EBEBEB"/>
<path d="M256.335 28.8799C256.272 28.8799 256.217 28.3689 256.217 27.7392C256.217 27.1095 256.272 26.5984 256.335 26.5984C256.399 26.5984 256.454 27.1095 256.454 27.7392C256.454 28.3734 256.399 28.8799 256.335 28.8799Z" fill="#EBEBEB"/>
<path d="M256.335 33.4429C256.272 33.4429 256.217 32.9319 256.217 32.3021C256.217 31.6724 256.272 31.1614 256.335 31.1614C256.399 31.1614 256.454 31.6724 256.454 32.3021C256.454 32.9364 256.399 33.4429 256.335 33.4429Z" fill="#EBEBEB"/>
<path d="M256.335 38.0061C256.272 38.0061 256.217 37.4951 256.217 36.8654C256.217 36.2357 256.272 35.7246 256.335 35.7246C256.399 35.7246 256.454 36.2357 256.454 36.8654C256.454 37.4996 256.399 38.0061 256.335 38.0061Z" fill="#EBEBEB"/>
<path d="M256.335 42.5691C256.272 42.5691 256.217 42.0581 256.217 41.4284C256.217 40.7987 256.272 40.2876 256.335 40.2876C256.399 40.2876 256.454 40.7987 256.454 41.4284C256.454 42.0626 256.399 42.5691 256.335 42.5691Z" fill="#EBEBEB"/>
<path d="M257.225 46.2423C257.225 46.2971 256.847 46.3473 256.335 46.3564L256.221 46.361V46.2423C256.221 46.1556 256.221 46.0735 256.217 45.9914C256.217 45.3617 256.272 44.8506 256.335 44.8506C256.399 44.8506 256.454 45.3617 256.454 45.9914C256.454 46.0735 256.454 46.1556 256.45 46.2423L256.335 46.1282C256.847 46.1419 257.225 46.1876 257.225 46.2423Z" fill="#EBEBEB"/>
<path d="M261.788 46.2424C261.788 46.3063 261.277 46.3611 260.647 46.3611C260.017 46.3611 259.506 46.3063 259.506 46.2424C259.506 46.1785 260.017 46.1238 260.647 46.1238C261.277 46.1238 261.788 46.1785 261.788 46.2424Z" fill="#EBEBEB"/>
<path d="M266.351 46.2424C266.351 46.3063 265.84 46.3611 265.21 46.3611C264.581 46.3611 264.07 46.3063 264.07 46.2424C264.07 46.1785 264.581 46.1238 265.21 46.1238C265.84 46.1238 266.351 46.1785 266.351 46.2424Z" fill="#EBEBEB"/>
<path d="M270.914 46.2424C270.914 46.3063 270.403 46.3611 269.774 46.3611C269.144 46.3611 268.633 46.3063 268.633 46.2424C268.633 46.1785 269.144 46.1238 269.774 46.1238C270.403 46.1238 270.914 46.1785 270.914 46.2424Z" fill="#EBEBEB"/>
<path d="M275.477 46.2424C275.477 46.3063 274.966 46.3611 274.337 46.3611C273.707 46.3611 273.196 46.3063 273.196 46.2424C273.196 46.1785 273.707 46.1238 274.337 46.1238C274.966 46.1238 275.477 46.1785 275.477 46.2424Z" fill="#EBEBEB"/>
<path d="M280.041 46.2424C280.041 46.3063 279.53 46.3611 278.9 46.3611C278.271 46.3611 277.76 46.3063 277.76 46.2424C277.76 46.1785 278.271 46.1238 278.9 46.1238C279.53 46.1238 280.041 46.1785 280.041 46.2424Z" fill="#EBEBEB"/>
<path d="M284.604 46.2424C284.604 46.3063 284.093 46.3611 283.463 46.3611C282.833 46.3611 282.322 46.3063 282.322 46.2424C282.322 46.1785 282.833 46.1238 283.463 46.1238C284.093 46.1238 284.604 46.1785 284.604 46.2424Z" fill="#EBEBEB"/>
<path d="M289.167 46.2424C289.167 46.3063 288.656 46.3611 288.027 46.3611C287.397 46.3611 286.886 46.3063 286.886 46.2424C286.886 46.1785 287.397 46.1238 288.027 46.1238C288.656 46.1238 289.167 46.1785 289.167 46.2424Z" fill="#EBEBEB"/>
<path d="M293.73 46.2424C293.73 46.3063 293.219 46.3611 292.589 46.3611C291.96 46.3611 291.448 46.3063 291.448 46.2424C291.448 46.1785 291.96 46.1238 292.589 46.1238C293.219 46.1238 293.73 46.1785 293.73 46.2424Z" fill="#EBEBEB"/>
<path d="M295.505 49.035C295.441 49.035 295.386 48.5239 295.386 47.8942C295.386 47.2645 295.441 46.7534 295.505 46.7534C295.569 46.7534 295.624 47.2645 295.624 47.8942C295.624 48.5239 295.569 49.035 295.505 49.035Z" fill="#EBEBEB"/>
<path d="M295.505 53.5979C295.441 53.5979 295.386 53.0869 295.386 52.4572C295.386 51.8275 295.441 51.3164 295.505 51.3164C295.569 51.3164 295.624 51.8275 295.624 52.4572C295.624 53.0869 295.569 53.5979 295.505 53.5979Z" fill="#EBEBEB"/>
<path d="M295.505 58.1612C295.441 58.1612 295.386 57.6501 295.386 57.0204C295.386 56.3907 295.441 55.8796 295.505 55.8796C295.569 55.8796 295.624 56.3907 295.624 57.0204C295.624 57.6501 295.569 58.1612 295.505 58.1612Z" fill="#EBEBEB"/>
<path d="M295.505 62.7242C295.441 62.7242 295.386 62.2131 295.386 61.5834C295.386 60.9537 295.441 60.4426 295.505 60.4426C295.569 60.4426 295.624 60.9537 295.624 61.5834C295.624 62.2131 295.569 62.7242 295.505 62.7242Z" fill="#EBEBEB"/>
<path d="M295.505 67.2874C295.441 67.2874 295.386 66.7763 295.386 66.1466C295.386 65.5169 295.441 65.0059 295.505 65.0059C295.569 65.0059 295.624 65.5169 295.624 66.1466C295.624 66.7763 295.569 67.2874 295.505 67.2874Z" fill="#EBEBEB"/>
<path d="M295.505 71.8504C295.441 71.8504 295.386 71.3393 295.386 70.7096C295.386 70.0799 295.441 69.5688 295.505 69.5688C295.569 69.5688 295.624 70.0799 295.624 70.7096C295.624 71.3393 295.569 71.8504 295.505 71.8504Z" fill="#EBEBEB"/>
<path d="M295.505 76.4134C295.441 76.4134 295.386 75.9023 295.386 75.2726C295.386 74.6429 295.441 74.1318 295.505 74.1318C295.569 74.1318 295.624 74.6429 295.624 75.2726C295.624 75.9023 295.569 76.4134 295.505 76.4134Z" fill="#EBEBEB"/>
<path d="M295.505 80.9766C295.441 80.9766 295.386 80.4655 295.386 79.8358C295.386 79.2061 295.441 78.6951 295.505 78.6951C295.569 78.6951 295.624 79.2061 295.624 79.8358C295.624 80.4655 295.569 80.9766 295.505 80.9766Z" fill="#EBEBEB"/>
<path d="M295.505 85.5396C295.441 85.5396 295.386 85.0285 295.386 84.3988C295.386 83.7691 295.441 83.2581 295.505 83.2581C295.569 83.2581 295.624 83.7691 295.624 84.3988C295.624 85.0285 295.569 85.5396 295.505 85.5396Z" fill="#EBEBEB"/>
<path d="M295.505 90.1026C295.441 90.1026 295.386 89.5915 295.386 88.9618C295.386 88.3321 295.441 87.821 295.505 87.821C295.569 87.821 295.624 88.3321 295.624 88.9618C295.624 89.5915 295.569 90.1026 295.505 90.1026Z" fill="#EBEBEB"/>
<path d="M295.505 94.6658C295.441 94.6658 295.386 94.1548 295.386 93.525C295.386 92.8953 295.441 92.3843 295.505 92.3843C295.569 92.3843 295.624 92.8953 295.624 93.525C295.624 94.1548 295.569 94.6658 295.505 94.6658Z" fill="#EBEBEB"/>
<path d="M178.722 28.7111C178.722 28.7111 175.181 26.749 171.708 35.1268C168.236 43.5046 167.045 48.2685 167.045 48.2685C167.045 48.2685 166.091 50.039 164.845 49.0305C163.6 48.0175 161.765 45.015 159.84 45.7314C157.841 46.4752 157.348 48.8115 158.001 52.1288C158.653 55.4508 159.817 62.7745 159.922 63.4407C160.022 64.0932 159.726 65.0834 158.763 64.5313C157.805 63.9792 152.11 58.5582 149.701 61.4147C147.291 64.2712 150.631 73.2194 150.978 74.205C151.325 75.1906 151.161 75.6378 150.704 75.9207C150.248 76.2082 148.505 74.205 146.821 72.7311C145.137 71.2573 142.929 69.8427 141.679 71.6041C140.428 73.37 140.524 80.2739 147.939 90.9196L151.699 95.6287L157.695 94.821C170.426 92.3113 175.29 87.4106 175.614 85.2705C175.938 83.1304 173.365 82.6148 171.133 82.5098C168.897 82.4049 166.255 82.633 166.123 82.1083C165.991 81.5835 166.182 81.15 167.118 80.68C168.053 80.21 176.668 76.0896 176.919 72.3615C177.17 68.6335 169.308 68.5787 168.236 68.3095C167.163 68.0403 167.638 67.1186 168.163 66.7216C168.697 66.3155 174.624 61.8528 177.398 59.918C180.173 57.9833 181.441 55.9618 180.52 54.0362C179.634 52.1836 176.226 53.0688 174.629 52.9319C173.032 52.7951 173.575 50.8603 173.575 50.8603C173.575 50.8603 176.029 46.603 179.347 38.1658C182.664 29.7287 178.653 28.6746 178.653 28.6746" fill="#EBEBEB"/>
<path d="M151.905 94.3829C154.364 88.1953 157.837 79.6761 161.701 70.2761C165.566 60.8807 169.057 52.3706 171.553 46.1968C172.794 43.1167 173.803 40.6207 174.501 38.8821C174.848 38.0243 175.117 37.3581 175.304 36.8926C175.395 36.6736 175.468 36.5002 175.518 36.377C175.569 36.2629 175.596 36.2036 175.596 36.2036C175.596 36.2036 175.578 36.2675 175.537 36.3861C175.491 36.5139 175.427 36.6873 175.341 36.9109C175.163 37.3763 174.902 38.0517 174.574 38.9141C173.903 40.6526 172.918 43.1577 171.685 46.2515C169.226 52.439 165.753 60.9583 161.889 70.3537C158.024 79.7536 154.528 88.2638 152.037 94.4376" fill="#E0E0E0"/>
<path d="M162.24 50.0389C162.254 50.0344 162.317 50.1758 162.427 50.4313C162.537 50.6914 162.683 51.0656 162.856 51.5356C163.203 52.4756 163.654 53.7806 164.12 55.2363C164.572 56.6691 164.982 57.9604 165.297 58.9597C165.439 59.4024 165.562 59.7765 165.658 60.0868C165.744 60.3515 165.785 60.5021 165.772 60.5066C165.758 60.5112 165.69 60.3697 165.58 60.1142C165.471 59.8541 165.325 59.4754 165.156 59.0054C164.813 58.0654 164.385 56.7512 163.919 55.2956C163.458 53.8673 163.038 52.5806 162.714 51.5812C162.568 51.1386 162.445 50.7645 162.345 50.4542C162.267 50.1941 162.226 50.0435 162.24 50.0389Z" fill="#E0E0E0"/>
<path d="M166.337 60.575C166.319 60.5203 168.975 59.4753 172.269 58.2433C175.568 57.0067 178.256 56.053 178.274 56.1032C178.293 56.158 175.637 57.2029 172.342 58.4349C169.043 59.6715 166.356 60.6298 166.337 60.575Z" fill="#E0E0E0"/>
<path d="M159.748 74.739C159.748 74.7253 159.903 74.7025 160.191 74.6797C160.519 74.6523 160.921 74.6249 161.396 74.5884C162.413 74.5108 163.819 74.3922 165.361 74.2142C166.908 74.0363 168.3 73.8264 169.308 73.6667C169.778 73.5936 170.175 73.5298 170.503 73.4796C170.786 73.4385 170.942 73.4202 170.946 73.4339C170.951 73.4476 170.796 73.4933 170.517 73.5571C170.239 73.621 169.833 73.7123 169.331 73.8081C168.327 74.0043 166.931 74.237 165.384 74.415C163.832 74.5975 162.422 74.6888 161.4 74.7299C160.889 74.7481 160.474 74.7618 160.191 74.7572C159.908 74.7572 159.748 74.7527 159.748 74.739Z" fill="#E0E0E0"/>
<path d="M153.944 66.0235C153.958 66.0143 154.049 66.1284 154.209 66.3383C154.369 66.5482 154.592 66.8585 154.866 67.2418C155.413 68.0084 156.162 69.0807 156.974 70.2671C157.786 71.4535 158.516 72.5395 159.032 73.3289C159.292 73.7214 159.497 74.0453 159.634 74.2689C159.771 74.4925 159.844 74.6203 159.831 74.6294C159.817 74.6385 159.726 74.5245 159.566 74.3146C159.406 74.1047 159.183 73.7944 158.909 73.4111C158.361 72.6445 157.613 71.5722 156.801 70.3858C155.988 69.1994 155.258 68.1179 154.743 67.3285C154.483 66.9361 154.277 66.6121 154.14 66.3885C154.003 66.1604 153.935 66.0326 153.944 66.0235Z" fill="#E0E0E0"/>
<path d="M146.542 77.787C146.556 77.7779 146.67 77.9239 146.875 78.1931C147.099 78.4989 147.382 78.8867 147.724 79.3476C148.431 80.3287 149.399 81.693 150.457 83.2034C151.516 84.7183 152.461 86.0918 153.141 87.0957C153.46 87.5748 153.725 87.9718 153.934 88.2867C154.117 88.5696 154.213 88.7338 154.204 88.7384C154.19 88.7475 154.076 88.6015 153.871 88.3323C153.647 88.0266 153.364 87.6387 153.022 87.1778C152.315 86.1968 151.347 84.8324 150.289 83.322C149.23 81.8117 148.285 80.4336 147.606 79.4297C147.286 78.9506 147.021 78.5536 146.812 78.2388C146.624 77.9559 146.529 77.7962 146.542 77.787Z" fill="#E0E0E0"/>
<path d="M154.09 88.4327C154.09 88.419 154.286 88.3871 154.647 88.346C155.044 88.3004 155.559 88.2411 156.171 88.1726C157.457 88.0266 159.232 87.8167 161.19 87.5338C163.148 87.2509 164.909 86.9543 166.182 86.7261C166.789 86.6212 167.295 86.5299 167.692 86.4615C168.048 86.4022 168.249 86.3748 168.254 86.3885C168.258 86.4022 168.062 86.4569 167.711 86.5391C167.359 86.6257 166.848 86.7398 166.209 86.8676C164.941 87.1277 163.175 87.4517 161.217 87.7346C159.26 88.0175 157.476 88.2046 156.184 88.3141C155.536 88.3688 155.016 88.4054 154.651 88.4236C154.291 88.4419 154.09 88.4464 154.09 88.4327Z" fill="#E0E0E0"/>
<path d="M311.535 105.832C311.535 95.9617 302.615 88.1725 292.393 90.089C285.964 91.2936 280.844 96.5457 279.717 102.989C279.014 107.018 279.845 110.805 281.679 113.931H281.67L281.716 113.99C282.332 115.026 283.103 115.765 283.879 116.856L293.187 129.185C294.346 130.719 296.651 130.719 297.81 129.185L306.963 117.057C306.963 117.057 308.67 115.017 309.29 113.972L309.322 113.927H309.318C310.723 111.554 311.535 108.788 311.535 105.832ZM295.505 112.813C291.608 112.813 288.451 109.655 288.451 105.759C288.451 101.862 291.608 98.7041 295.505 98.7041C299.402 98.7041 302.56 101.862 302.56 105.759C302.56 109.651 299.402 112.813 295.505 112.813Z" fill="#F5F5F5"/>
<path d="M235.838 34.5428V53.3974C235.838 53.8035 236.166 54.1321 236.573 54.1321H276.107C276.518 54.1321 276.846 53.799 276.842 53.3883L276.75 46.4843C276.75 46.3292 276.696 46.1786 276.604 46.0554L270.933 38.4761C270.796 38.2936 270.581 38.1841 270.348 38.1795L263.814 38.1293C263.413 38.1248 263.084 37.7962 263.084 37.3947V34.5428C263.084 34.1366 262.755 33.8081 262.349 33.8081H236.568C236.166 33.8081 235.838 34.1366 235.838 34.5428Z" fill="#F5F5F5"/>
<path d="M264.927 39.772V45.8226C264.927 46.0599 265.119 46.247 265.356 46.2424L274.086 46.0873C274.419 46.0827 274.615 45.7085 274.428 45.4302L270.348 39.4115C270.266 39.2929 270.134 39.2244 269.988 39.229L265.343 39.3522C265.11 39.3567 264.927 39.5438 264.927 39.772Z" fill="#EBEBEB"/>
<path d="M277.626 54.707H235.039V56.0212H277.626V54.707Z" fill="#F5F5F5"/>
<path d="M247.889 58.1876C249.534 56.5428 249.534 53.8761 247.889 52.2314C246.244 50.5866 243.577 50.5866 241.933 52.2314C240.288 53.8761 240.288 56.5428 241.933 58.1876C243.577 59.8323 246.244 59.8323 247.889 58.1876Z" fill="#EBEBEB"/>
<path d="M247.392 55.209C247.392 56.5779 246.283 57.6867 244.914 57.6867C243.545 57.6867 242.436 56.5779 242.436 55.209C242.436 53.84 243.545 52.7312 244.914 52.7312C246.283 52.7312 247.392 53.84 247.392 55.209Z" fill="#FAFAFA"/>
<path d="M263.057 54.1321C262.952 54.1321 262.865 49.5827 262.865 43.9701C262.865 38.3575 262.952 33.8081 263.057 33.8081C263.162 33.8081 263.249 38.3575 263.249 43.9701C263.249 49.5827 263.162 54.1321 263.057 54.1321Z" fill="#EBEBEB"/>
<path d="M270.842 58.1898C272.487 56.545 272.487 53.8783 270.842 52.2336C269.197 50.5888 266.53 50.5888 264.886 52.2335C263.241 53.8783 263.241 56.545 264.886 58.1898C266.53 59.8345 269.197 59.8345 270.842 58.1898Z" fill="#EBEBEB"/>
<path d="M270.349 55.209C270.349 56.5779 269.24 57.6867 267.871 57.6867C266.502 57.6867 265.393 56.5779 265.393 55.209C265.393 53.84 266.502 52.7312 267.871 52.7312C269.235 52.7312 270.349 53.84 270.349 55.209Z" fill="#FAFAFA"/>
<path d="M267.88 47.438C267.88 47.5429 267.278 47.6296 266.534 47.6296C265.79 47.6296 265.188 47.5429 265.188 47.438C265.188 47.333 265.79 47.2463 266.534 47.2463C267.273 47.2463 267.88 47.333 267.88 47.438Z" fill="#EBEBEB"/>
<path d="M319.447 188.031C319.447 188.095 247.93 188.15 159.731 188.15C71.5034 188.15 0 188.099 0 188.031C0 187.967 71.5034 187.912 159.731 187.912C247.93 187.912 319.447 187.967 319.447 188.031Z" fill="black"/>
<path d="M63.792 186.023C69.9384 181.761 71.3576 173.812 71.1431 166.662C71.1066 165.467 71.2435 164.212 70.6777 163.162C70.1118 162.113 68.7931 161.392 67.7208 161.894C66.831 162.309 66.4431 163.336 65.9458 164.189C65.2841 165.321 64.2939 166.256 63.1395 166.854C62.3774 167.246 61.4374 167.483 60.6891 167.068C59.6624 166.498 59.5438 165.074 59.5574 163.888C59.5803 161.675 59.5985 159.462 59.6213 157.253C59.635 156.067 59.6396 154.853 59.2745 153.726C58.9095 152.599 58.0973 151.549 56.9702 151.23C55.8431 150.91 54.4422 151.554 54.2004 152.717C54.1 153.201 54.1958 153.703 54.1593 154.196C54.1228 154.689 53.8947 155.232 53.4247 155.369C52.9501 155.505 52.4756 155.168 52.1242 154.821C50.9013 153.616 50.0754 152.069 49.3042 150.532C48.5331 148.994 47.7847 147.42 46.6759 146.11C45.5671 144.8 44.0339 143.755 42.3364 143.655C40.6344 143.555 38.8228 144.595 38.3848 146.265C37.9467 147.935 38.9186 149.637 39.9773 150.997C41.547 153.014 43.4042 154.798 45.4758 156.277C45.85 156.541 46.2515 156.833 46.393 157.271C46.6485 158.065 45.8956 158.846 45.1153 159.106C44.2301 159.398 43.2718 159.302 42.3455 159.407C41.4192 159.512 40.4153 159.918 40.064 160.789C39.5757 161.999 40.5842 163.276 41.5789 164.111C43.573 165.786 45.85 167.114 48.2821 168.013C49.1536 168.337 50.0708 168.62 50.7735 169.236C51.4762 169.852 51.896 170.919 51.4671 171.755C51.0382 172.59 49.9476 172.854 49.0304 172.681C48.1178 172.507 47.301 172.01 46.4295 171.677C44.8005 171.056 42.6923 171.161 41.6428 172.567C40.9538 173.493 40.8899 174.78 41.2321 175.889C41.5744 176.993 42.2771 177.947 43.0209 178.827C45.6264 181.903 48.962 184.385 52.7448 185.708C56.523 187.018 60.0274 187.383 63.792 186.023Z" fill="#027A48"/>
<path d="M63.3859 188.036C63.1349 185.202 63.0072 185.143 61.9622 181.533C60.9218 177.919 59.4525 174.059 57.7824 170.066C57.3581 169.071 56.9428 168.086 56.5322 167.118C56.1215 166.151 55.7108 165.193 55.2499 164.28C54.3419 162.45 53.3289 160.758 52.3159 159.183C51.3029 157.609 50.2853 156.149 49.3271 154.794C48.3642 153.438 47.4379 152.193 46.5481 151.093C44.7731 148.884 43.1395 147.278 41.9668 146.22C41.3827 145.69 40.9173 145.293 40.5979 145.024C40.4427 144.896 40.3241 144.8 40.2328 144.723C40.1507 144.659 40.1051 144.623 40.1051 144.627C40.1005 144.632 40.1416 144.668 40.2192 144.741C40.3059 144.819 40.4245 144.924 40.5705 145.056C40.8808 145.33 41.3371 145.74 41.9121 146.279C43.062 147.356 44.6773 148.976 46.4295 151.189C47.3102 152.293 48.2228 153.539 49.1765 154.899C50.1302 156.258 51.1432 157.719 52.147 159.293C53.1509 160.867 54.1548 162.555 55.0583 164.376C55.5146 165.284 55.9161 166.238 56.3314 167.205C56.7421 168.173 57.1573 169.158 57.5817 170.153C59.2563 174.141 60.7256 177.992 61.7706 181.588C62.8246 185.184 62.9661 185.225 63.2308 188.045" fill="black"/>
<path d="M55.1859 164.271C55.1996 164.276 55.2406 164.093 55.3045 163.765C55.3684 163.436 55.446 162.961 55.5281 162.368C55.7015 161.186 55.884 159.548 56.0757 157.741C56.2673 155.934 56.4727 154.301 56.6643 153.124C56.7556 152.535 56.8377 152.06 56.897 151.732C56.9563 151.403 56.9792 151.221 56.9655 151.216C56.9518 151.212 56.897 151.39 56.8149 151.714C56.7282 152.038 56.6278 152.507 56.5137 153.096C56.2856 154.269 56.0529 155.907 55.8612 157.714C55.6741 159.498 55.5053 161.113 55.3775 162.345C55.3136 162.902 55.2634 163.372 55.2224 163.751C55.1859 164.084 55.1722 164.271 55.1859 164.271Z" fill="black"/>
<path d="M39.9365 161.364C39.9365 161.378 40.151 161.406 40.5434 161.437C40.9358 161.474 41.5017 161.524 42.1998 161.606C43.5961 161.761 45.5217 162.044 47.6253 162.45C49.7335 162.861 51.6226 163.308 52.9824 163.678C53.6623 163.856 54.2098 164.016 54.5886 164.121C54.9673 164.23 55.1772 164.285 55.1818 164.267C55.1863 164.253 54.9856 164.171 54.6114 164.038C54.2418 163.906 53.6988 163.724 53.0189 163.527C51.6682 163.121 49.7745 162.647 47.6618 162.236C45.5491 161.83 43.6144 161.57 42.2089 161.456C41.5062 161.392 40.9358 161.364 40.5434 161.355C40.1556 161.346 39.9365 161.351 39.9365 161.364Z" fill="black"/>
<path d="M61.7752 181.255C61.7844 181.26 61.8163 181.196 61.8802 181.068C61.9532 180.917 62.0399 180.735 62.1448 180.516C62.373 180.037 62.6787 179.334 63.0529 178.462C63.7967 176.715 64.7458 174.273 65.7542 171.563C66.7672 168.853 67.6935 166.402 68.3963 164.645C68.7431 163.792 69.026 163.089 69.2359 162.565C69.3271 162.336 69.4001 162.149 69.4595 161.999C69.5096 161.866 69.5325 161.798 69.5233 161.793C69.5142 161.789 69.4823 161.853 69.4184 161.981C69.3454 162.131 69.2587 162.309 69.1537 162.533C68.9256 163.012 68.6198 163.714 68.2457 164.586C67.5019 166.334 66.5528 168.775 65.5398 171.485C64.5268 174.196 63.6005 176.646 62.8977 178.403C62.551 179.256 62.268 179.959 62.0581 180.484C61.9669 180.712 61.8939 180.899 61.8345 181.05C61.7935 181.182 61.7707 181.25 61.7752 181.255Z" fill="black"/>
<path d="M41.5198 174.648C41.5198 174.657 41.5882 174.684 41.7206 174.73C41.8803 174.784 42.0719 174.848 42.3092 174.93C42.8522 175.108 43.5869 175.35 44.4767 175.642C46.3064 176.245 48.8298 177.102 51.6133 178.056C54.3968 179.01 56.9293 179.845 58.7728 180.411C59.6945 180.694 60.4429 180.913 60.9631 181.054C61.2049 181.118 61.4011 181.173 61.5654 181.214C61.7023 181.246 61.7753 181.264 61.7798 181.255C61.7798 181.246 61.7114 181.218 61.5791 181.173C61.4194 181.118 61.2277 181.054 60.9904 180.972C60.4474 180.794 59.7128 180.552 58.823 180.26C56.9932 179.658 54.4698 178.8 51.6863 177.846C48.9028 176.893 46.3749 176.058 44.5268 175.492C43.6051 175.209 42.8568 174.99 42.3366 174.848C42.0947 174.784 41.8985 174.73 41.7342 174.689C41.5928 174.652 41.5198 174.638 41.5198 174.648Z" fill="black"/>
<path d="M137.887 188.031H74.3828C66.7077 187.994 60.2235 181.451 60.2555 173.78L60.9308 13.84C60.9628 6.16032 67.2142 -0.0363442 74.8938 0.000160462L138.69 0.29676C146.365 0.333265 152.557 6.58012 152.521 14.2507L151.846 174.191C151.814 181.871 145.562 188.067 137.887 188.031Z" fill="black"/>
<path d="M138.599 6.37489L126.229 6.32013C124.572 6.31101 123.217 7.71187 123.212 9.44584L123.203 11.6863C123.194 13.4203 121.843 14.8211 120.187 14.812L96.0757 14.7025C94.4193 14.6934 93.0778 13.2834 93.0869 11.5494L93.096 9.30439C93.1051 7.57042 91.7636 6.15586 90.1072 6.1513L85.7586 6.13305L74.9304 6.08285C69.5551 6.06004 65.1745 10.3995 65.1517 15.7748L64.4901 171.891C64.4673 177.267 68.8022 181.643 74.1775 181.666L137.846 181.958C143.221 181.98 147.602 177.641 147.625 172.266L148.286 16.149C148.309 10.7737 143.974 6.39771 138.599 6.37489Z" fill="#F5F5F5"/>
<path d="M111.576 152.452C111.503 154.337 111.435 156.107 111.375 157.577H120.52L119.402 151.959L111.576 152.452Z" fill="#F5F5F5"/>
<path d="M74.4102 154.802L74.4877 157.572H110.468C110.527 156.016 110.595 154.287 110.664 152.507L74.4102 154.802Z" fill="#F5F5F5"/>
<path d="M119.863 151.928L120.99 157.577H137.85L137.65 150.805L119.863 151.928Z" fill="#F5F5F5"/>
<path d="M112.494 72.9909L115.679 54.5058L107.328 53.8853V72.9909H112.494Z" fill="#F5F5F5"/>
<path d="M73.6573 144.54L64.595 148.09L64.5676 154.51L73.9265 153.917L73.6573 144.54Z" fill="#F5F5F5"/>
<path d="M73.616 143.098L73.1186 125.882H73.1141V119.808L64.7089 120.698L64.5994 146.621L73.6114 143.089L73.616 143.098Z" fill="#F5F5F5"/>
<path d="M73.1145 106.256L64.7732 105.156L64.7139 119.324L73.1145 118.435V106.256Z" fill="#F5F5F5"/>
<path d="M135.254 120.064L134.902 125.001L125.055 126.06L125.817 129.966L136.997 129.122L136.828 123.523L137.722 119.817L135.254 120.064Z" fill="#F5F5F5"/>
<path d="M117.508 130.591L125.361 130.002L123.65 121.236L116.796 121.93L117.508 130.591Z" fill="#F5F5F5"/>
<path d="M117.581 131.503L118.184 138.809L119.247 148.829L119.685 151.024L137.622 149.892L137.025 130.034L117.581 131.503Z" fill="#F5F5F5"/>
<path d="M86.7123 97.0019L87.4013 98.1837L73.5706 106.251V125.389L88.1679 124.357L116.304 121.519L115.273 108.975L88.3915 105.462L88.5695 104.107L115.159 107.579L113.415 86.3471L87.1002 88.8796L87.0135 87.9715L113.342 85.439L112.434 74.3599H87.1184L64.8871 78.4073L64.7776 103.778L73.1965 104.887L86.7123 97.0019ZM74.9852 123.564C74.9852 123.564 75.0901 107.784 74.9852 107.191L86.2742 101.186L87.739 122.756L74.9852 123.564Z" fill="#F5F5F5"/>
<path d="M134.332 120.159L124.106 121.191L124.882 125.161L134.049 124.175L134.332 120.159Z" fill="#F5F5F5"/>
<path d="M111.709 149.071C111.677 149.902 111.645 150.723 111.613 151.535L119.224 151.052L118.832 149.09L111.709 149.071Z" fill="#F5F5F5"/>
<path d="M95.3131 72.9909L96.6547 66.9129H106.871V53.8533L74.9208 51.4851V63.7461L64.9413 66.0048L64.8911 77.011L86.9947 72.9909H95.3131Z" fill="#F5F5F5"/>
<path d="M116.632 36.6552L116.358 35.5373L128.56 30.7095L120.625 14.7798C120.483 14.8026 120.337 14.8163 120.187 14.8163L106.703 14.7524L107.068 37.0476L116.632 36.6552Z" fill="#F5F5F5"/>
<path d="M135.126 28.1085L135.112 6.3563L126.232 6.31523C124.576 6.3061 123.221 7.70697 123.216 9.44094L123.202 11.686C123.198 12.7583 122.682 13.6983 121.897 14.2595L129.837 30.2029L135.126 28.1085Z" fill="#F5F5F5"/>
<path d="M89.2582 29.0439L88.2315 6.14184L85.7583 6.12815L76.1074 6.08252L71.9961 26.5662L89.2582 29.0439ZM87.0542 8.45988L87.3828 27.1137L74.556 25.2383L77.3668 8.46445L87.0542 8.45988Z" fill="#F5F5F5"/>
<path d="M89.7239 29.1123L89.7284 29.3085C89.7513 31.0972 89.7878 34.3142 89.8151 37.7548L106.621 37.0703L106.256 14.7523L96.0848 14.7066C94.4284 14.6975 93.0869 13.2875 93.096 11.5536L93.1051 9.30853C93.1142 7.57456 91.7727 6.16001 90.1163 6.15544L88.6926 6.15088L89.7239 29.1168V29.1123Z" fill="#F5F5F5"/>
<path d="M70.6365 26.37L74.7067 6.08716C69.4318 6.18298 65.1745 10.4677 65.1517 15.77L65.1106 25.8818L65.1517 25.5852L70.6365 26.37Z" fill="#F5F5F5"/>
<path d="M73.5523 51.3848L65.0056 50.7505L64.9463 64.5994L73.5523 62.651V51.3848Z" fill="#F5F5F5"/>
<path d="M70.5446 26.8172L65.11 26.0369L65.0142 48.4644L66.1823 48.5511L70.5446 26.8172Z" fill="#F5F5F5"/>
<path d="M87.8113 142.838L87.9527 124.832L73.5745 125.85L74.081 143.486L87.8113 142.838Z" fill="#F5F5F5"/>
<path d="M90.4539 138.681L110.819 148.437C111.061 142.062 111.28 136.103 111.257 135.72L111.7 135.697L111.914 135.268C112.202 135.414 112.202 135.414 112.051 139.758C111.964 142.181 111.846 145.407 111.722 148.638H118.763L117.727 138.85L116.34 121.971L89.7329 124.654L90.4539 138.681Z" fill="#F5F5F5"/>
<path d="M140.369 108.802L140.141 106.425L115.733 108.966L116.76 121.474L137.832 119.347L140.369 108.802Z" fill="#F5F5F5"/>
<path d="M106.872 68.2817H97.755L96.7146 72.9908H106.872V68.2817Z" fill="#F5F5F5"/>
<path d="M136.601 69.8698L113.762 68.291L112.832 73.6846L113.794 85.3934L137.878 83.0754L136.601 69.8698ZM114.607 73.6754L115.834 70.2714L135.67 71.5262L136.82 81.2684L115.282 83.8237L114.607 73.6754Z" fill="#F5F5F5"/>
<path d="M138.968 94.3417L137.969 83.988L113.871 86.3015L114.775 97.3259L138.968 94.3417Z" fill="#F5F5F5"/>
<path d="M73.9537 154.834L64.6039 155.423L64.5628 154.816L64.5537 157.577H74.0312L73.9537 154.834Z" fill="#F5F5F5"/>
<path d="M148.122 22.966L148.259 23.3128L148.291 16.1442C148.314 10.7689 143.979 6.39751 138.603 6.37013L135.569 6.35645L135.583 27.9261L148.122 22.966Z" fill="#F5F5F5"/>
<path d="M110.801 148.934L90.0158 138.978L89.2811 124.709L88.4096 124.796L88.2636 143.272L74.0952 143.942L74.1089 144.353L74.1135 144.362H74.1089L74.3827 153.89L110.7 151.595C110.732 150.709 110.764 149.82 110.801 148.934ZM74.985 145.12L94.8161 143.728L107.716 149.715L74.985 151.485V145.12Z" fill="#F5F5F5"/>
<path d="M142.213 46.9266L143.062 41.8844C135.606 39.2241 135.09 31.4532 135.113 29.0986L130.249 31.0243L137.577 45.7311L142.213 46.9266Z" fill="#F5F5F5"/>
<path d="M115.619 107.602L125.754 106.548L123.755 97.595L114.889 98.6901L115.619 107.602Z" fill="#F5F5F5"/>
<path d="M136.637 54.6565H117.709L116.14 54.5378L114 66.9357L136.468 68.4872L135.948 63.0982L138.156 55.1402L136.637 54.6565Z" fill="#F5F5F5"/>
<path d="M136.176 52.375L136.413 46.4567L128.975 31.5217L117.44 36.0848L121.405 52.3704H136.176V52.375ZM128.523 33.3424L135.341 46.3107L134.355 50.3535L122.692 49.9155L119.776 37.6499L128.523 33.3424Z" fill="#F5F5F5"/>
<path d="M139.119 123.76L139.465 135.382L147.67 134.921L147.693 135.377L139.479 135.838L139.899 149.747L147.652 149.254L147.711 150.166L139.926 150.659L140.132 157.577H147.688L147.852 118.795L140.127 119.575L139.119 123.76Z" fill="#F5F5F5"/>
<path d="M89.2722 29.5049L71.9051 27.0134L67.561 48.6515L89.3452 50.2669C89.4364 46.9358 89.3589 36.7145 89.2722 29.5049Z" fill="#F5F5F5"/>
<path d="M117.837 52.375H120.461L116.742 37.1069L107.077 37.5039L107.31 51.5993L117.837 52.375Z" fill="#F5F5F5"/>
<path d="M64.5081 168.683L64.4944 171.887C64.4944 171.987 64.5035 172.083 64.5081 172.179V168.683Z" fill="#F5F5F5"/>
<path d="M89.7917 50.2988L106.853 51.5628L106.62 37.5222L89.81 38.2112C89.8465 42.9568 89.8648 48.0219 89.7917 50.2988Z" fill="#F5F5F5"/>
<path d="M139.101 95.7061L124.211 97.5404L126.21 106.498L140.009 105.065L139.101 95.7061Z" fill="#F5F5F5"/>
<path d="M143.139 41.4235L144.093 35.7653L148.204 36.0847L148.254 23.8967L135.573 28.9161C135.318 37.4901 140.707 40.5063 143.139 41.4235Z" fill="#F5F5F5"/>
<path d="M138.256 63.3036L138.777 68.647L148.062 69.2904L148.108 58.2796L140.333 55.8247L138.256 63.3036Z" fill="#F5F5F5"/>
<path d="M142.678 108.962L140.237 119.105L147.853 118.339L147.898 107.702C145.562 107.086 143.522 106.584 142.423 106.375L142.678 108.962Z" fill="#F5F5F5"/>
<path d="M137.535 52.5484L148.122 55.8931L148.145 49.8744L137.75 47.1868L137.535 52.5484Z" fill="#F5F5F5"/>
<path d="M142.29 104.978C143.143 105.106 144.759 105.448 147.903 106.279L148.003 83.0251L140.237 83.7735L142.29 104.978Z" fill="#F5F5F5"/>
<path d="M140.15 82.8609L148.008 82.1034L148.058 70.6638L138.909 70.0295L140.15 82.8609Z" fill="#F5F5F5"/>
<path d="M144.015 41.7157C145.502 42.1674 146.889 42.5188 148.172 42.7743L148.194 37.002L144.85 36.7419L144.015 41.7157Z" fill="#F5F5F5"/>
<path d="M143.098 47.1548L148.149 48.4599L148.172 43.2397C146.867 42.9796 145.457 42.6237 143.938 42.1628L143.098 47.1548Z" fill="#F5F5F5"/>
<path d="M73.954 154.834L74.0315 157.577H74.4878L74.4103 154.807L110.664 152.512C110.595 154.291 110.527 156.021 110.468 157.577H111.38C111.44 156.107 111.508 154.337 111.581 152.452L119.407 151.96L120.525 157.577H120.99L119.863 151.928L137.645 150.801L137.851 157.572H140.132L139.922 150.655L147.707 150.162L147.648 149.249L139.895 149.737L139.475 135.829L147.689 135.368L147.661 134.912L139.461 135.373L139.115 123.751L140.123 119.562L147.853 118.781V118.321L140.237 119.087L142.678 108.943L142.427 106.352C143.523 106.562 145.562 107.063 147.903 107.679L147.908 106.256C144.764 105.43 143.148 105.088 142.295 104.955L140.242 83.7461L148.008 82.9978L148.013 82.0806L140.155 82.8381L138.914 70.0067L148.063 70.641L148.067 69.2675L138.777 68.6241L138.261 63.2762L140.338 55.8018L148.113 58.2568L148.122 55.8657L137.54 52.5256L137.755 47.1639L148.15 49.8516L148.154 48.4416L143.103 47.1366L143.942 42.1491C145.457 42.61 146.867 42.9659 148.177 43.226V42.756C146.895 42.5005 145.508 42.1491 144.02 41.6974L144.86 36.7236L148.204 36.9837L148.209 36.0665L144.098 35.7471L143.144 41.4053C140.712 40.4882 135.323 37.472 135.578 28.8934L148.259 23.874L148.264 23.2945L148.127 22.9477L135.587 27.9078L135.574 6.33809H135.117L135.131 28.0903L129.847 30.1802L121.907 14.2368C121.533 14.506 121.104 14.684 120.634 14.7524L128.569 30.6821L116.368 35.5098L116.642 36.6278L107.077 37.0202L106.712 14.725H106.256L106.621 37.043L89.8152 37.7275C89.7878 34.2869 89.7513 31.07 89.7285 29.2812L89.724 29.085H89.7194L88.6881 6.11906H88.2318L89.2585 29.0211L71.9964 26.5434L76.1077 6.05974L74.9305 6.05518C74.8574 6.05518 74.7844 6.0643 74.7069 6.0643L70.6366 26.3472L65.1518 25.5578L65.1107 25.8544V26.0095L70.5499 26.7898L66.1876 48.5192L65.0149 48.4325L65.0058 50.7186L73.5524 51.3528V62.6236L64.9464 64.5721L64.9419 65.9775L74.9213 63.7188V51.4578L106.872 53.826V66.8856H96.6553L95.3137 72.9636H86.9952L64.8962 76.9837L64.8917 78.3754L87.123 74.3279H112.439L113.347 85.4071L87.018 87.9396L87.1047 88.8477L113.42 86.3151L115.163 107.547L88.5741 104.075L88.3961 105.43L115.277 108.943L116.308 121.487L88.1725 124.326L73.5752 125.357V106.219L87.4059 98.1518L86.7169 96.9699L73.201 104.85L64.7822 103.742L64.7776 105.12L73.1143 106.219V118.398L64.7183 119.288L64.7137 120.666L73.1189 119.776V125.85H73.1235L73.6208 143.066L73.6163 143.057L64.6042 146.589L64.5996 148.063L73.6619 144.513L73.9311 153.89L64.5723 154.483V154.789L64.6088 155.396L73.954 154.834ZM111.613 151.535C111.645 150.723 111.677 149.902 111.709 149.071L118.836 149.089L119.229 151.052L111.613 151.535ZM119.685 151.024L119.247 148.829L118.184 138.809L117.582 131.503L137.025 130.039L137.623 149.893L119.685 151.024ZM124.107 121.191L134.333 120.159L134.045 124.175L124.878 125.165L124.107 121.191ZM123.65 121.236L125.362 129.997L117.509 130.591L116.797 121.925L123.65 121.236ZM136.997 129.121L125.818 129.966L125.056 126.06L134.903 124.996L135.254 120.064L137.718 119.813L136.829 123.522L136.997 129.121ZM123.755 97.5951L125.754 106.543L115.619 107.597L114.889 98.6856L123.755 97.5951ZM126.21 106.498L124.212 97.5403L139.101 95.706L140.009 105.065L126.21 106.498ZM136.468 68.4872L114 66.9312L116.14 54.5379L117.709 54.6565L136.637 54.6611L138.156 55.1402L135.943 63.1028L136.468 68.4872ZM135.113 29.0942C135.09 31.4487 135.606 39.2196 143.062 41.8799L142.213 46.9221L137.577 45.722L130.249 31.0152L135.113 29.0942ZM128.971 31.5263L136.409 46.4612L136.172 52.3795H121.401L117.436 36.0939L128.971 31.5263ZM116.742 37.1069L120.461 52.375H117.833L107.31 51.5947L107.077 37.4993L116.742 37.1069ZM106.621 37.5222L106.854 51.5627L89.7924 50.2988C89.8654 48.0218 89.8472 42.9568 89.8152 38.2066L106.621 37.5222ZM71.9051 27.0134L89.2722 29.5048C89.3589 36.7145 89.4365 46.9312 89.3498 50.2623L67.5656 48.6469L71.9051 27.0134ZM115.679 54.5059L112.489 72.991H107.328V53.8853L115.679 54.5059ZM97.755 68.2819H106.872V72.991H96.7146L97.755 68.2819ZM112.836 73.6845L113.767 68.291L136.605 69.8698L137.883 83.0799L113.799 85.398L112.836 73.6845ZM137.969 83.988L138.973 94.3462L114.78 97.3258L113.876 86.306L137.969 83.988ZM115.733 108.966L140.141 106.429L140.37 108.802L137.832 119.347L116.756 121.474L115.733 108.966ZM117.728 138.85L118.768 148.633H111.727C111.85 145.407 111.969 142.181 112.056 139.753C112.206 135.409 112.206 135.409 111.919 135.263L111.704 135.692L111.262 135.715C111.28 136.094 111.065 142.058 110.824 148.432L90.4586 138.676L89.7376 124.654L116.345 121.971L117.728 138.85ZM87.9535 124.832L87.812 142.838L74.0863 143.491L73.5798 125.854L87.9535 124.832ZM74.1091 144.362V144.353L74.0954 143.942L88.2638 143.271L88.4098 124.796L89.2813 124.709L90.016 138.978L110.801 148.934C110.769 149.82 110.732 150.709 110.7 151.595L74.3829 153.89L74.1091 144.362Z" fill="white"/>
<path d="M94.8158 143.728L74.9846 145.12V151.485L107.716 149.71L94.8158 143.728Z" fill="#EBEBEB"/>
<path d="M135.665 71.5261L115.829 70.2712L114.606 73.6753L115.277 83.819L136.815 81.2637L135.665 71.5261Z" fill="#EBEBEB"/>
<path d="M74.182 181.661L137.851 181.953C143.226 181.976 147.606 177.636 147.629 172.261L147.693 157.572H140.132H137.851H120.99H120.525H111.38H110.468H74.4878H74.0314H64.5539L64.5083 168.679V172.174C64.6406 177.417 68.9071 181.633 74.182 181.661Z" fill="#EBEBEB"/>
<path d="M87.387 27.1138L87.0539 8.45996H77.3665L74.5557 25.2384L87.387 27.1138Z" fill="#EBEBEB"/>
<path d="M134.355 50.3534L135.341 46.3106L128.524 33.3423L119.772 37.6498L122.692 49.9154L134.355 50.3534Z" fill="#EBEBEB"/>
<path d="M74.9846 107.196C75.0896 107.784 74.9846 123.568 74.9846 123.568L87.7339 122.76L86.2691 101.191L74.9846 107.196Z" fill="#EBEBEB"/>
<path d="M117.508 120.009L116.838 110.23L138.704 107.419V109.108L136.062 118.102L117.508 120.009Z" fill="#EBEBEB"/>
<path d="M101.332 38.9095C101.332 40.3788 100.141 41.5743 98.6673 41.5743C97.198 41.5743 96.0024 40.3833 96.0024 38.9095C96.0024 37.4402 97.1934 36.2446 98.6673 36.2446C100.141 36.2446 101.332 37.4402 101.332 38.9095Z" fill="#FEC54B"/>
<g opacity="0.6">
<path opacity="0.6" d="M101.332 38.7953C101.396 40.2646 100.255 41.5058 98.7862 41.5697C97.3169 41.6336 96.0757 40.4928 96.0118 39.0235C95.948 37.5542 97.0887 36.313 98.558 36.2491C100.027 36.1853 101.269 37.326 101.332 38.7953Z" fill="white"/>
</g>
<path d="M98.6718 40.5888C99.6496 40.5888 100.442 39.7961 100.442 38.8183C100.442 37.8405 99.6496 37.0479 98.6718 37.0479C97.694 37.0479 96.9014 37.8405 96.9014 38.8183C96.9014 39.7961 97.694 40.5888 98.6718 40.5888Z" fill="#FEC54B"/>
<path d="M139.84 145.298C139.84 145.927 139.329 146.434 138.704 146.434C138.078 146.434 137.567 145.923 137.567 145.298C137.567 144.668 138.078 144.161 138.704 144.161C139.329 144.161 139.84 144.668 139.84 145.298Z" fill="#FEC54B"/>
<path d="M138.019 144.928L137.746 138.549L118.521 139.484C118.019 139.512 117.517 139.402 117.07 139.174L89.8058 125.403C89.1761 125.083 88.7609 124.449 88.7244 123.742L85.0146 51.7637C84.9964 51.4169 85.1287 51.0838 85.3751 50.842C85.6215 50.6001 85.9637 50.4769 86.306 50.4997L97.992 51.3667V38.5901H99.3609V51.5401C99.3609 51.8732 99.2195 52.1972 98.9776 52.4208C98.7312 52.6489 98.4027 52.763 98.0696 52.7402L86.3927 51.8732L90.0933 123.664C90.1024 123.879 90.2302 124.075 90.4264 124.175L117.691 137.947C117.928 138.065 118.193 138.124 118.462 138.111L137.846 137.166C138.174 137.153 138.48 137.262 138.722 137.481C138.964 137.7 139.101 137.997 139.114 138.325L139.397 144.864L138.019 144.928Z" fill="#FEC54B"/>
<path d="M87.2419 86.4658C89.1471 86.4658 90.6916 84.9213 90.6916 83.0161C90.6916 81.1109 89.1471 79.5664 87.2419 79.5664C85.3367 79.5664 83.7922 81.1109 83.7922 83.0161C83.7922 84.9213 85.3367 86.4658 87.2419 86.4658Z" fill="#FEC54B"/>
<path d="M87.2423 85.4118C88.5654 85.4118 89.6379 84.3393 89.6379 83.0162C89.6379 81.6932 88.5654 80.6206 87.2423 80.6206C85.9192 80.6206 84.8467 81.6932 84.8467 83.0162C84.8467 84.3393 85.9192 85.4118 87.2423 85.4118Z" fill="#FAFAFA"/>
<path d="M87.2421 85.5853C85.8276 85.5853 84.6731 84.4354 84.6731 83.0163C84.6731 81.6017 85.823 80.4473 87.2421 80.4473C88.6567 80.4473 89.8111 81.5972 89.8111 83.0163C89.8111 84.4354 88.6567 85.5853 87.2421 85.5853ZM87.2421 80.7941C86.0146 80.7941 85.0153 81.7934 85.0153 83.0208C85.0153 84.2483 86.0146 85.2476 87.2421 85.2476C88.4696 85.2476 89.4689 84.2483 89.4689 83.0208C89.4689 81.7888 88.4696 80.7941 87.2421 80.7941Z" fill="#FEC54B"/>
<path d="M107.566 68.5469H91.1386C90.3401 68.5469 89.6921 69.1948 89.6921 69.9934V75.9436C89.6921 76.7422 90.3401 77.3901 91.1386 77.3901H91.3303V78.8092L92.973 77.3901H107.566C108.364 77.3901 109.012 76.7422 109.012 75.9436V69.9934C109.012 69.1948 108.364 68.5469 107.566 68.5469Z" fill="#FEC54B"/>
<g opacity="0.4">
<g opacity="0.4">
<path opacity="0.4" d="M107.566 68.5469H91.1386C90.3401 68.5469 89.6921 69.1948 89.6921 69.9934V75.9436C89.6921 76.7422 90.3401 77.3901 91.1386 77.3901H91.3303V78.8092L92.973 77.3901H107.566C108.364 77.3901 109.012 76.7422 109.012 75.9436V69.9934C109.012 69.1948 108.364 68.5469 107.566 68.5469Z" fill="white"/>
</g>
</g>
<path d="M93.3835 72.8722C93.3835 72.3292 93.8034 71.9231 94.3737 71.9231C94.9396 71.9231 95.3594 72.3246 95.3594 72.8722C95.3594 73.4198 94.9396 73.8213 94.3737 73.8213C93.8034 73.8213 93.3835 73.4152 93.3835 72.8722ZM95.0947 72.8722C95.0947 72.4615 94.789 72.1604 94.3737 72.1604C93.9585 72.1604 93.6482 72.4615 93.6482 72.8722C93.6482 73.2829 93.9539 73.5841 94.3737 73.5841C94.7844 73.5886 95.0947 73.2829 95.0947 72.8722Z" fill="white"/>
<path d="M97.1843 73.101C97.1843 73.5299 96.8831 73.8219 96.4725 73.8219C96.2671 73.8219 96.0846 73.7444 95.9705 73.5846V73.8082H95.7241V71.8416H95.9797V72.6173C96.0983 72.4667 96.2717 72.3937 96.4725 72.3937C96.8831 72.3846 97.1843 72.6675 97.1843 73.101ZM96.9288 73.101C96.9288 72.7998 96.7234 72.6081 96.4542 72.6081C96.185 72.6081 95.9842 72.7998 95.9842 73.101C95.9842 73.4021 96.1896 73.5983 96.4542 73.5983C96.7234 73.5938 96.9288 73.3976 96.9288 73.101Z" fill="white"/>
<path d="M97.0522 74.2462L97.1344 74.05C97.1846 74.091 97.2576 74.1184 97.3397 74.1184C97.4766 74.1184 97.5496 74.0317 97.5496 73.872V72.3981H97.8052V73.8675C97.8052 74.1549 97.6454 74.3329 97.358 74.3329C97.2393 74.3329 97.1253 74.3055 97.0522 74.2462ZM97.504 71.9601C97.504 71.8688 97.577 71.7913 97.6774 71.7913C97.7778 71.7913 97.8508 71.8643 97.8508 71.951C97.8508 72.0468 97.7778 72.1198 97.6774 72.1198C97.5816 72.1244 97.504 72.0559 97.504 71.9601Z" fill="white"/>
<path d="M99.5574 73.183H98.4167C98.4486 73.4294 98.6494 73.5937 98.9277 73.5937C99.092 73.5937 99.2289 73.5389 99.3338 73.4248L99.4753 73.5891C99.3475 73.7397 99.1559 73.8173 98.9186 73.8173C98.4669 73.8173 98.1611 73.5161 98.1611 73.0963C98.1611 72.681 98.4623 72.3799 98.8684 72.3799C99.2745 72.3799 99.562 72.6719 99.562 73.1054C99.562 73.1282 99.5574 73.1602 99.5574 73.183ZM98.4167 73.0005H99.3202C99.2928 72.7632 99.1148 72.5989 98.8684 72.5989C98.622 72.5989 98.444 72.7632 98.4167 73.0005Z" fill="white"/>
<path d="M99.7856 73.1009C99.7856 72.6811 100.096 72.3845 100.529 72.3845C100.78 72.3845 100.99 72.4895 101.104 72.6857L100.913 72.8089C100.821 72.672 100.685 72.6081 100.529 72.6081C100.256 72.6081 100.046 72.7998 100.046 73.1009C100.046 73.4066 100.251 73.5983 100.529 73.5983C100.685 73.5983 100.821 73.5344 100.913 73.3975L101.104 73.5207C100.995 73.7169 100.785 73.8219 100.529 73.8219C100.096 73.8173 99.7856 73.5207 99.7856 73.1009Z" fill="white"/>
<path d="M102.236 73.7215C102.158 73.79 102.044 73.8174 101.93 73.8174C101.647 73.8174 101.483 73.6622 101.483 73.3793V72.6082H101.246V72.3983H101.483V72.0925H101.739V72.3983H102.14V72.6082H101.739V73.3702C101.739 73.5208 101.816 73.6075 101.958 73.6075C102.031 73.6075 102.104 73.5847 102.158 73.539L102.236 73.7215Z" fill="white"/>
<path d="M102.5 71.9601C102.5 71.8688 102.573 71.7913 102.674 71.7913C102.769 71.7913 102.847 71.8643 102.847 71.951C102.847 72.0468 102.774 72.1198 102.674 72.1198C102.573 72.1244 102.5 72.0559 102.5 71.9601ZM102.546 72.3981H102.801V73.8036H102.546V72.3981Z" fill="white"/>
<path d="M104.531 72.3982L103.915 73.8036H103.655L103.039 72.3982H103.303L103.787 73.5253L104.28 72.3982H104.531Z" fill="white"/>
<path d="M105.996 73.183H104.855C104.887 73.4294 105.088 73.5937 105.366 73.5937C105.531 73.5937 105.668 73.5389 105.773 73.4248L105.914 73.5891C105.786 73.7397 105.595 73.8173 105.357 73.8173C104.906 73.8173 104.6 73.5161 104.6 73.0963C104.6 72.681 104.901 72.3799 105.307 72.3799C105.713 72.3799 106.001 72.6719 106.001 73.1054C106.001 73.1282 105.996 73.1602 105.996 73.183ZM104.855 73.0005H105.759C105.732 72.7632 105.554 72.5989 105.307 72.5989C105.061 72.5989 104.878 72.7632 104.855 73.0005Z" fill="white"/>
<path d="M102.14 29.9614C102.14 27.8578 100.242 26.2014 98.0656 26.6075C96.6967 26.863 95.6061 27.981 95.3643 29.3545C95.2137 30.2123 95.3916 31.02 95.7841 31.6862L95.7932 31.6999C95.9255 31.9189 96.0898 32.0786 96.2541 32.3114L98.239 34.9397C98.4854 35.2682 98.9782 35.2682 99.2246 34.9397L101.173 32.357C101.173 32.357 101.538 31.9235 101.67 31.6999L101.68 31.6908C101.967 31.1797 102.14 30.5911 102.14 29.9614ZM98.7227 31.4489C97.8922 31.4489 97.2214 30.7782 97.2214 29.9477C97.2214 29.1172 97.8922 28.4464 98.7227 28.4464C99.5532 28.4464 100.224 29.1172 100.224 29.9477C100.224 30.7782 99.5532 31.4489 98.7227 31.4489Z" fill="#FEC54B"/>
<path d="M80.027 164.512H79.3882V164.28H80.9259V164.512H80.2871V166.137H80.0225V164.512H80.027Z" fill="black"/>
<path d="M80.9031 165.434C80.9031 165.015 81.2134 164.718 81.6332 164.718C82.053 164.718 82.3633 165.015 82.3633 165.434C82.3633 165.854 82.0575 166.155 81.6332 166.155C81.2134 166.155 80.9031 165.854 80.9031 165.434ZM82.1077 165.434C82.1077 165.133 81.907 164.942 81.6377 164.942C81.3685 164.942 81.1632 165.133 81.1632 165.434C81.1632 165.736 81.3685 165.932 81.6377 165.932C81.9024 165.932 82.1077 165.736 82.1077 165.434Z" fill="black"/>
<path d="M83.5087 166.055C83.4312 166.123 83.3171 166.155 83.203 166.155C82.9201 166.155 82.7558 166 82.7558 165.713V164.942H82.5186V164.732H82.7558V164.426H83.0114V164.732H83.4129V164.942H83.0114V165.704C83.0114 165.854 83.0889 165.941 83.2304 165.941C83.3034 165.941 83.3764 165.918 83.4312 165.873L83.5087 166.055Z" fill="black"/>
<path d="M84.9275 165.288V166.137H84.6856V165.95C84.599 166.078 84.4438 166.151 84.2248 166.151C83.9054 166.151 83.7046 165.982 83.7046 165.736C83.7046 165.512 83.8506 165.325 84.2704 165.325H84.672V165.275C84.672 165.06 84.5488 164.937 84.2932 164.937C84.1244 164.937 83.9556 164.996 83.846 165.088L83.7411 164.896C83.8871 164.777 84.097 164.713 84.3206 164.713C84.713 164.718 84.9275 164.905 84.9275 165.288ZM84.672 165.708V165.512H84.2795C84.0286 165.512 83.9556 165.608 83.9556 165.731C83.9556 165.872 84.0742 165.959 84.2658 165.959C84.4575 165.959 84.6081 165.872 84.672 165.708Z" fill="black"/>
<path d="M85.4023 164.17H85.6579V166.137H85.4023V164.17Z" fill="black"/>
<path d="M88.1809 164.17V166.137H87.9345V165.914C87.8204 166.073 87.6424 166.151 87.4325 166.151C87.0219 166.151 86.7207 165.863 86.7207 165.43C86.7207 165.001 87.0219 164.714 87.4325 164.714C87.6333 164.714 87.8067 164.787 87.9254 164.937V164.161H88.1809V164.17ZM87.9299 165.434C87.9299 165.133 87.7246 164.942 87.4599 164.942C87.1907 164.942 86.9854 165.133 86.9854 165.434C86.9854 165.736 87.1907 165.932 87.4599 165.932C87.7246 165.932 87.9299 165.736 87.9299 165.434Z" fill="black"/>
<path d="M88.6194 164.298C88.6194 164.207 88.6924 164.129 88.7928 164.129C88.8886 164.129 88.9662 164.202 88.9662 164.294C88.9662 164.389 88.8932 164.463 88.7928 164.463C88.6924 164.463 88.6194 164.389 88.6194 164.298ZM88.665 164.732H88.9205V166.137H88.665V164.732Z" fill="black"/>
<path d="M89.2263 165.991L89.3313 165.79C89.4499 165.877 89.6416 165.936 89.8241 165.936C90.0614 165.936 90.1572 165.863 90.1572 165.745C90.1572 165.43 89.2674 165.704 89.2674 165.142C89.2674 164.891 89.491 164.723 89.8515 164.723C90.034 164.723 90.2439 164.768 90.3625 164.85L90.253 165.051C90.1252 164.969 89.9838 164.942 89.8469 164.942C89.6233 164.942 89.5138 165.024 89.5138 165.133C89.5138 165.466 90.4036 165.193 90.4036 165.74C90.4036 165.996 90.1709 166.155 89.7967 166.155C89.5731 166.155 89.345 166.082 89.2263 165.991Z" fill="black"/>
<path d="M91.5263 166.055C91.4487 166.123 91.3347 166.155 91.2206 166.155C90.9377 166.155 90.7734 166 90.7734 165.713V164.942H90.5361V164.732H90.7734V164.426H91.0289V164.732H91.4305V164.942H91.0289V165.704C91.0289 165.854 91.1065 165.941 91.248 165.941C91.321 165.941 91.394 165.918 91.4487 165.873L91.5263 166.055Z" fill="black"/>
<path d="M92.9446 165.288V166.137H92.7027V165.95C92.616 166.078 92.4609 166.151 92.2419 166.151C91.9225 166.151 91.7217 165.982 91.7217 165.736C91.7217 165.512 91.8677 165.325 92.2875 165.325H92.6891V165.275C92.6891 165.06 92.5659 164.937 92.3103 164.937C92.1415 164.937 91.9727 164.996 91.8631 165.088L91.7582 164.896C91.9042 164.777 92.1141 164.713 92.3377 164.713C92.7256 164.718 92.9446 164.905 92.9446 165.288ZM92.6891 165.708V165.512H92.2966C92.0457 165.512 91.9727 165.608 91.9727 165.731C91.9727 165.872 92.0913 165.959 92.2829 165.959C92.4746 165.959 92.6252 165.872 92.6891 165.708Z" fill="black"/>
<path d="M94.752 165.329V166.137H94.4965V165.357C94.4965 165.083 94.3596 164.946 94.1177 164.946C93.8485 164.946 93.6706 165.106 93.6706 165.412V166.137H93.415V164.732H93.6614V164.942C93.7664 164.8 93.9444 164.718 94.1679 164.718C94.5102 164.718 94.752 164.914 94.752 165.329Z" fill="black"/>
<path d="M95.1038 165.434C95.1038 165.015 95.4141 164.718 95.8475 164.718C96.0985 164.718 96.3084 164.823 96.4225 165.019L96.2308 165.142C96.1396 165.005 96.0027 164.942 95.8475 164.942C95.5738 164.942 95.3639 165.133 95.3639 165.434C95.3639 165.74 95.5692 165.932 95.8475 165.932C96.0027 165.932 96.1396 165.868 96.2308 165.731L96.4225 165.854C96.313 166.05 96.1031 166.155 95.8475 166.155C95.4141 166.155 95.1038 165.854 95.1038 165.434Z" fill="black"/>
<path d="M97.992 165.521H96.8512C96.8832 165.768 97.0839 165.932 97.3623 165.932C97.5266 165.932 97.6635 165.877 97.7684 165.763L97.9099 165.927C97.7821 166.078 97.5905 166.155 97.3532 166.155C96.9014 166.155 96.5957 165.854 96.5957 165.434C96.5957 165.019 96.8969 164.718 97.303 164.718C97.7091 164.718 97.9966 165.01 97.9966 165.444C97.9966 165.466 97.992 165.498 97.992 165.521ZM96.8512 165.339H97.7547C97.7273 165.101 97.5494 164.937 97.303 164.937C97.0566 164.932 96.8786 165.097 96.8512 165.339Z" fill="black"/>
<path d="M81.6924 168.223V172.653H80.6658V169.044H79.7805V168.223H81.6924Z" fill="black"/>
<path d="M83.6644 172.083C83.6644 172.247 83.637 172.366 83.4956 172.717L83.1351 173.63H82.5099L82.7883 172.626C82.5784 172.544 82.446 172.348 82.446 172.088C82.446 171.723 82.7107 171.481 83.0621 171.481C83.4089 171.476 83.6644 171.723 83.6644 172.083Z" fill="black"/>
<path d="M85.7313 168.223V172.653H84.7046V169.044H83.8193V168.223H85.7313Z" fill="black"/>
<path d="M86.5024 170.436C86.5024 168.976 87.3147 168.145 88.4007 168.145C89.4958 168.145 90.2989 168.976 90.2989 170.436C90.2989 171.896 89.4958 172.726 88.4007 172.726C87.3147 172.726 86.5024 171.896 86.5024 170.436ZM89.2677 170.436C89.2677 169.427 88.9117 169.012 88.4007 169.012C87.8942 169.012 87.5383 169.432 87.5383 170.436C87.5383 171.444 87.8942 171.859 88.4007 171.859C88.9163 171.859 89.2677 171.444 89.2677 170.436Z" fill="black"/>
<path d="M90.801 170.436C90.801 168.976 91.6132 168.145 92.6993 168.145C93.7944 168.145 94.5975 168.976 94.5975 170.436C94.5975 171.896 93.7944 172.726 92.6993 172.726C91.6132 172.726 90.801 171.896 90.801 170.436ZM93.5662 170.436C93.5662 169.427 93.2103 169.012 92.6993 169.012C92.1928 169.012 91.8368 169.432 91.8368 170.436C91.8368 171.444 92.1928 171.859 92.6993 171.859C93.2149 171.859 93.5662 171.444 93.5662 170.436Z" fill="black"/>
<path d="M102.852 170.7V172.649H101.866V170.851C101.866 170.299 101.62 170.048 101.223 170.048C100.78 170.048 100.47 170.331 100.47 170.942V172.653H99.4841V170.856C99.4841 170.303 99.2513 170.052 98.8407 170.052C98.4026 170.052 98.0923 170.335 98.0923 170.947V172.658H97.1067V169.254H98.0512V169.646C98.3022 169.354 98.6855 169.204 99.119 169.204C99.5936 169.204 99.9997 169.386 100.242 169.76C100.515 169.414 100.958 169.204 101.469 169.204C102.268 169.195 102.852 169.665 102.852 170.7Z" fill="black"/>
<path d="M77.0552 168.748C77.5381 166.695 76.265 164.639 74.2118 164.156C72.1585 163.673 70.1027 164.946 69.6198 167C69.137 169.053 70.4101 171.109 72.4633 171.592C74.5165 172.074 76.5724 170.801 77.0552 168.748Z" fill="#FEC54B"/>
<path d="M71.8041 168.569C71.8041 168.547 72.16 168.528 72.7852 168.51C73.4103 168.492 74.3001 168.478 75.3679 168.469L75.2903 168.638C74.9891 168.291 74.6606 167.908 74.3138 167.511L74.2499 167.438L74.3092 167.365C74.615 166.981 74.9389 166.58 75.272 166.16L75.3633 166.352C75.2264 166.352 75.0758 166.352 74.9298 166.352C73.8027 166.347 72.7395 166.343 71.7995 166.338L71.9045 166.233C71.8954 167.392 71.8817 168.369 71.8634 169.053C71.8452 169.738 71.8224 170.135 71.7995 170.135C71.7767 170.135 71.7539 169.738 71.7357 169.053C71.7174 168.369 71.7037 167.392 71.6946 166.233V166.128H71.8041C72.7441 166.124 73.8073 166.119 74.9344 166.115C75.0849 166.115 75.231 166.115 75.3679 166.115H75.6143L75.4591 166.306C75.1215 166.721 74.7975 167.123 74.4872 167.502V167.356C74.8249 167.757 75.1488 168.145 75.4454 168.496L75.5915 168.67H75.3679C74.3001 168.661 73.4057 168.647 72.7852 168.629C72.16 168.615 71.8041 168.592 71.8041 168.569Z" fill="#FAFAFA"/>
<path d="M135.14 161.355H123.591C122.373 161.355 121.383 162.345 121.383 163.564V172.653C121.383 173.872 122.373 174.862 123.591 174.862H123.883V177.029L126.397 174.862H135.14C136.359 174.862 137.349 173.872 137.349 172.653V163.564C137.349 162.345 136.359 161.355 135.14 161.355Z" fill="#FEC54B"/>
<path d="M124.69 165.526V170.189C124.69 170.289 124.772 170.372 124.872 170.372H134.647C134.747 170.372 134.829 170.289 134.829 170.189L134.806 168.482C134.806 168.446 134.793 168.405 134.77 168.377L133.369 166.502C133.337 166.456 133.282 166.429 133.223 166.429L131.608 166.415C131.507 166.415 131.425 166.333 131.425 166.233V165.53C131.425 165.43 131.343 165.348 131.243 165.348H124.868C124.772 165.343 124.69 165.425 124.69 165.526Z" fill="#FAFAFA"/>
<path d="M131.882 166.822V168.318C131.882 168.378 131.928 168.423 131.987 168.423L134.146 168.387C134.228 168.387 134.278 168.291 134.228 168.222L133.219 166.735C133.201 166.707 133.165 166.689 133.128 166.689L131.978 166.721C131.928 166.717 131.882 166.762 131.882 166.822Z" fill="#FEC54B"/>
<path d="M135.021 170.513H124.494V170.837H135.021V170.513Z" fill="#FAFAFA"/>
<path d="M127.976 170.636C127.976 171.211 127.51 171.676 126.935 171.676C126.36 171.676 125.895 171.211 125.895 170.636C125.895 170.061 126.36 169.596 126.935 169.596C127.51 169.596 127.976 170.061 127.976 170.636Z" fill="#FEC54B"/>
<path d="M127.552 170.636C127.552 170.974 127.278 171.248 126.94 171.248C126.603 171.248 126.329 170.974 126.329 170.636C126.329 170.298 126.603 170.025 126.94 170.025C127.273 170.025 127.552 170.298 127.552 170.636Z" fill="#FAFAFA"/>
<path d="M131.421 170.372C131.394 170.372 131.375 169.244 131.375 167.857C131.375 166.47 131.398 165.343 131.421 165.343C131.449 165.343 131.467 166.466 131.467 167.857C131.471 169.244 131.449 170.372 131.421 170.372Z" fill="#FEC54B"/>
<path d="M133.653 170.636C133.653 171.211 133.187 171.676 132.612 171.676C132.037 171.676 131.572 171.211 131.572 170.636C131.572 170.061 132.037 169.596 132.612 169.596C133.187 169.596 133.653 170.061 133.653 170.636Z" fill="#FEC54B"/>
<path d="M133.224 170.636C133.224 170.974 132.95 171.248 132.612 171.248C132.275 171.248 132.001 170.974 132.001 170.636C132.001 170.298 132.275 170.025 132.612 170.025C132.95 170.025 133.224 170.298 133.224 170.636Z" fill="#FAFAFA"/>
<path d="M132.612 168.715C132.612 168.743 132.462 168.761 132.279 168.761C132.097 168.761 131.946 168.738 131.946 168.715C131.946 168.688 132.097 168.67 132.279 168.67C132.466 168.665 132.612 168.688 132.612 168.715Z" fill="#FEC54B"/>
<path d="M241.51 92.179C241.51 92.179 248.871 93.4247 249.464 93.5798C250.057 93.7395 252.389 94.8438 252.507 95.5556C252.626 96.2675 252.507 98.3619 252.507 98.3619C252.507 98.3619 252.088 98.7042 251.823 98.0197C251.558 97.3352 251.599 95.98 251.599 95.98L250.294 95.4781L251.006 96.742L251.125 99.7035C251.125 99.7035 250.212 99.6213 250.039 98.9095C249.861 98.2022 249.865 97.4082 249.865 97.4082L248.912 96.6006L249.623 97.5634L249.865 99.6989C249.865 99.6989 249.172 99.9225 248.953 99.4479C248.734 98.9734 248.715 97.5634 248.715 97.5634L246.032 96.628L244.257 97.6181L240.94 95.7427L241.51 92.179Z" fill="#FFBE9D"/>
<path d="M215.742 73.9861C215.774 74.1321 224.613 86.2973 224.613 86.2973L242.363 91.8186L241.556 98.4852L219.799 94.1047L212.078 85.2432L215.742 73.9861Z" fill="#FEC54B"/>
<g opacity="0.2">
<g opacity="0.2">
<path opacity="0.2" d="M215.742 73.9861C215.774 74.1321 224.613 86.2973 224.613 86.2973L242.363 91.8186L241.556 98.4852L219.799 94.1047L212.078 85.2432L215.742 73.9861Z" fill="black"/>
</g>
</g>
<path d="M184.822 97.796H148.555C147.788 97.796 147.163 97.1754 147.163 96.4043V92.1195C147.163 91.3529 147.784 90.7278 148.555 90.7278H184.822C185.589 90.7278 186.214 91.3484 186.214 92.1195V96.4043C186.214 97.1754 185.593 97.796 184.822 97.796Z" fill="#F5F5F5"/>
<path d="M184.823 97.7963C184.823 97.7872 184.9 97.7917 185.051 97.7643C185.197 97.7324 185.425 97.6731 185.658 97.486C185.886 97.308 186.123 96.9932 186.169 96.5643C186.187 96.1353 186.169 95.6243 186.169 95.0584C186.164 94.4881 186.164 93.8583 186.16 93.1648C186.16 92.818 186.155 92.4575 186.155 92.0833C186.146 91.7228 185.982 91.3578 185.685 91.1068C185.539 90.979 185.361 90.8878 185.169 90.8376C184.978 90.7828 184.772 90.792 184.553 90.792C184.12 90.792 183.677 90.7965 183.221 90.7965C182.304 90.8011 181.336 90.8011 180.323 90.8056C172.187 90.8148 160.958 90.8285 148.56 90.8422C148.204 90.8376 147.853 90.9973 147.62 91.2574C147.378 91.5221 147.264 91.8688 147.287 92.2385C147.287 93.0051 147.287 93.7671 147.287 94.52C147.287 94.8987 147.287 95.2729 147.287 95.6471V96.2083C147.287 96.4 147.287 96.5643 147.332 96.7331C147.419 97.0616 147.647 97.3491 147.944 97.5134C148.09 97.5955 148.254 97.6457 148.423 97.664C148.583 97.6776 148.779 97.6685 148.961 97.6731C151.886 97.6776 154.706 97.6776 157.394 97.6822C162.765 97.6913 167.606 97.7005 171.676 97.7096C175.733 97.7233 179.018 97.737 181.304 97.7461C182.432 97.7552 183.312 97.7643 183.924 97.7689C184.216 97.7735 184.439 97.778 184.604 97.7826C184.745 97.7872 184.823 97.7963 184.823 97.7963C184.823 97.7963 184.745 97.8054 184.59 97.81C184.426 97.8145 184.202 97.8145 183.91 97.8237C183.303 97.8282 182.422 97.8373 181.291 97.8465C179.009 97.8556 175.719 97.8693 171.663 97.883C167.597 97.8921 162.756 97.8967 157.38 97.9104C154.693 97.9104 151.873 97.9149 148.948 97.9195C148.761 97.9149 148.592 97.9286 148.386 97.9104C148.19 97.8875 147.994 97.8282 147.821 97.7324C147.469 97.5407 147.2 97.1985 147.095 96.8107C147.04 96.619 147.04 96.4045 147.04 96.2266V95.6653C147.04 95.2912 147.04 94.9124 147.04 94.5382C147.04 93.7808 147.04 93.0233 147.04 92.2567C147.013 91.8643 147.15 91.4171 147.433 91.1159C147.711 90.8056 148.131 90.6186 148.551 90.6231C160.949 90.6368 172.178 90.6505 180.314 90.6596C181.332 90.6642 182.299 90.6642 183.212 90.6688C183.668 90.6688 184.115 90.6733 184.544 90.6733C184.754 90.6733 184.982 90.6642 185.192 90.7281C185.402 90.7874 185.598 90.8878 185.758 91.0292C186.082 91.3076 186.26 91.7091 186.265 92.1016C186.265 92.4757 186.265 92.8362 186.26 93.183C186.255 93.872 186.251 94.5063 186.251 95.0767C186.242 95.6471 186.255 96.1444 186.228 96.5916C186.169 97.0434 185.918 97.3628 185.676 97.5453C185.429 97.7324 185.197 97.7826 185.046 97.81C184.905 97.81 184.823 97.7963 184.823 97.7963Z" fill="black"/>
<path d="M283.292 188.101C293.584 187.606 301.527 178.862 301.032 168.569C300.538 158.277 291.793 150.334 281.501 150.829C271.208 151.323 263.265 160.068 263.76 170.36C264.255 180.653 272.999 188.595 283.292 188.101Z" fill="black"/>
<path d="M263.75 169.163C263.75 169.181 263.746 169.195 263.746 169.213C263.595 179.516 271.827 187.99 282.131 188.136C292.434 188.287 300.908 180.055 301.054 169.751C301.054 169.733 301.054 169.72 301.054 169.701L263.75 169.163Z" fill="black"/>
<path d="M269.309 169.291C269.204 176.523 274.985 182.473 282.218 182.578C289.45 182.683 295.4 176.902 295.505 169.669C295.61 162.437 289.829 156.487 282.596 156.382C275.359 156.281 269.414 162.058 269.309 169.291Z" fill="#FAFAFA"/>
<path d="M282.592 156.382C275.359 156.277 269.409 162.058 269.304 169.291L295.501 169.669C295.606 162.437 289.829 156.487 282.592 156.382Z" fill="#E0E0E0"/>
<path d="M274.428 169.368C274.364 173.776 277.887 177.399 282.29 177.463C286.698 177.527 290.321 174.004 290.385 169.601C290.449 165.193 286.926 161.57 282.523 161.506C278.115 161.438 274.487 164.96 274.428 169.368Z" fill="black"/>
<path d="M273.547 142.122C273.547 142.122 292.648 136.345 300.551 157.098L260.578 169.478L273.547 142.122Z" fill="#FEC54B"/>
<path d="M168.175 188.104C178.467 187.61 186.41 178.865 185.915 168.573C185.42 158.28 176.676 150.338 166.383 150.832C156.091 151.327 148.148 160.072 148.643 170.364C149.138 180.656 157.882 188.599 168.175 188.104Z" fill="black"/>
<path d="M148.632 169.163C148.632 169.181 148.628 169.195 148.628 169.213C148.477 179.516 156.709 187.99 167.012 188.136C177.316 188.286 185.789 180.055 185.935 169.751C185.935 169.733 185.935 169.719 185.935 169.701L148.632 169.163Z" fill="black"/>
<path d="M154.185 169.291C154.081 176.523 159.862 182.473 167.094 182.578C174.327 182.683 180.277 176.902 180.382 169.669C180.487 162.437 174.706 156.487 167.473 156.382C160.236 156.281 154.29 162.058 154.185 169.291Z" fill="#FAFAFA"/>
<path d="M167.473 156.382C160.241 156.277 154.29 162.058 154.186 169.29L180.382 169.669C180.487 162.437 174.706 156.486 167.473 156.382Z" fill="#E0E0E0"/>
<path d="M159.305 169.368C159.241 173.776 162.764 177.399 167.167 177.463C171.575 177.527 175.198 174.004 175.262 169.601C175.326 165.193 171.803 161.57 167.4 161.506C162.992 161.437 159.369 164.96 159.305 169.368Z" fill="black"/>
<path d="M193.82 161.99C193.715 162.045 184.001 160.489 184.001 160.489C182.937 161.876 181.313 162.724 179.57 162.807C175.372 163.007 171.27 163.194 167.715 163.35C164.402 163.496 161.833 166.302 161.97 169.615V169.619C162.102 172.754 164.617 175.259 167.751 175.382L188.413 176.195C191.813 176.327 196.325 174.264 198.447 171.604L193.82 161.99Z" fill="black"/>
<path d="M143.061 153.735C143.061 153.735 142.171 135.551 159.26 131.764V129.432H219.123V134.99C219.123 134.99 210.335 145.572 213.205 154.356C216.075 163.144 216.969 164.039 216.969 164.039H251.037C251.037 164.039 255.162 158.837 255.34 151.13C255.518 143.418 252.315 130.235 249.924 121.807C247.747 114.146 246.374 107.735 246.374 107.735L256.595 104.326C256.595 104.326 275.509 129.053 276.28 130.445C277.051 131.837 279.68 135.081 279.059 142.186C278.443 149.295 261.446 171.235 256.965 173.703C252.484 176.176 248.468 176.332 244.448 176.948C240.962 177.486 215.167 177.13 208.423 177.025C206.077 176.989 203.764 176.391 201.761 175.177C199.744 173.954 198.224 171.928 196.55 168.606L192.995 161.652L143.061 153.735Z" fill="#FEC54B"/>
<path d="M147.642 152.471L140.1 164.28C139.132 165.791 140.697 167.694 142.34 166.982C143.139 166.635 143.997 166.097 144.868 165.266C148.318 161.985 154.464 153.343 154.464 153.343L147.642 152.471Z" fill="black"/>
<path d="M201.711 154.598C201.706 154.598 201.72 154.538 201.756 154.424C201.793 154.301 201.843 154.137 201.907 153.927C202.035 153.489 202.19 152.836 202.304 151.978C202.495 150.276 202.409 147.68 201.136 144.851C200.515 143.441 199.598 141.999 198.357 140.676C197.111 139.361 195.573 138.148 193.775 137.18C191.987 136.208 189.961 135.442 187.798 134.954C185.63 134.465 183.326 134.246 180.967 134.246C178.608 134.246 176.308 134.456 174.099 134.748C171.891 135.045 169.774 135.41 167.775 135.866C163.782 136.765 160.31 138.093 157.622 139.622C154.925 141.141 153.013 142.802 151.818 144.048C151.216 144.668 150.782 145.184 150.495 145.54C150.358 145.709 150.253 145.846 150.171 145.946C150.098 146.037 150.057 146.083 150.052 146.078C150.052 146.078 150.563 145.257 151.749 143.984C152.927 142.711 154.834 141.022 157.535 139.476C160.228 137.915 163.718 136.564 167.725 135.652C169.728 135.191 171.85 134.817 174.067 134.515C176.281 134.219 178.594 134.004 180.967 134.004C183.34 134.004 185.662 134.228 187.848 134.721C190.034 135.214 192.073 135.989 193.88 136.98C195.692 137.961 197.248 139.197 198.503 140.534C199.753 141.88 200.675 143.345 201.291 144.778C202.555 147.648 202.619 150.276 202.395 151.983C202.267 152.845 202.098 153.502 201.952 153.936C201.879 154.141 201.82 154.306 201.779 154.424C201.738 154.543 201.715 154.598 201.711 154.598Z" fill="black"/>
<path d="M198.261 150.514C198.233 150.504 198.361 150.226 198.484 149.706C198.626 149.186 198.685 148.396 198.553 147.447C198.42 146.494 198.055 145.394 197.439 144.276C197.138 143.715 196.769 143.158 196.335 142.615C195.911 142.067 195.413 141.547 194.852 141.077C193.725 140.133 192.475 139.466 191.293 138.996C190.102 138.536 188.979 138.262 188.026 138.102C187.072 137.942 186.287 137.874 185.749 137.842C185.206 137.81 184.909 137.796 184.909 137.778C184.909 137.769 184.982 137.764 185.128 137.755C185.27 137.751 185.484 137.742 185.753 137.746C186.296 137.751 187.086 137.792 188.053 137.933C189.021 138.07 190.161 138.33 191.375 138.786C192.58 139.256 193.857 139.927 195.007 140.89C195.582 141.374 196.089 141.903 196.522 142.464C196.96 143.016 197.334 143.591 197.636 144.166C198.252 145.307 198.608 146.439 198.722 147.42C198.836 148.396 198.749 149.204 198.576 149.724C198.521 149.993 198.407 150.181 198.357 150.317C198.302 150.45 198.27 150.518 198.261 150.514Z" fill="#F5F5F5"/>
<g opacity="0.4">
<g opacity="0.4">
<g opacity="0.4">
<path opacity="0.4" d="M186.539 134.584C189.883 135.223 192.808 136.423 195.551 138.252C198.293 140.082 200.397 142.679 201.588 145.754C202.783 148.83 202.605 152.905 201.346 155.451L205.576 155.802C206.999 151.052 205.448 145.225 202.026 141.506C198.015 137.144 192.493 134.584 186.539 134.584Z" fill="black"/>
</g>
</g>
</g>
<path d="M185.192 129.432H148.19C146.027 129.432 144.275 127.68 144.275 125.517V101.356C144.275 99.1927 146.027 97.4404 148.19 97.4404H185.192C187.355 97.4404 189.107 99.1927 189.107 101.356V125.517C189.107 127.68 187.355 129.432 185.192 129.432Z" fill="black"/>
<path d="M189.107 104.577C189.107 104.641 179.027 104.696 166.597 104.696C154.163 104.696 144.083 104.641 144.083 104.577C144.083 104.513 154.163 104.458 166.597 104.458C179.027 104.458 189.107 104.513 189.107 104.577Z" fill="black"/>
<path d="M219.096 131.549C219.096 131.613 205.644 131.668 189.048 131.668C172.447 131.668 159 131.613 159 131.549C159 131.485 172.452 131.431 189.048 131.431C205.639 131.431 219.096 131.485 219.096 131.549Z" fill="black"/>
<path d="M219.123 129.432C219.123 129.432 220.109 128.255 220.205 126.749C220.3 125.243 219.611 123.368 217.996 123.368H197.325C193.976 123.368 191.261 126.083 191.261 129.432H219.123Z" fill="black"/>
<path d="M246.378 107.735L242.783 100.238C241.801 98.1067 242.582 95.5742 244.599 94.3741L255.349 87.963C255.911 87.6299 256.554 87.4519 257.206 87.4519H259.529L260.46 102.606L256.878 103.975L259.146 107.662L246.378 107.735Z" fill="#FEC54B"/>
<path d="M259.565 87.9993C259.565 87.9993 263.243 88.8434 263.704 94.5108C264.165 100.183 260.46 101.944 260.46 101.944L259.565 87.9993Z" fill="#EBEBEB"/>
<path d="M247.633 97.2988C247.633 97.2988 240.2 100.822 239.292 101.401C238.662 101.803 238.123 102.505 238.616 103.742C239.46 105.85 242.933 103.865 242.933 103.865L249.851 100.406C249.851 100.406 252.511 99.1514 251.53 97.5772C250.43 95.8204 247.633 97.2988 247.633 97.2988Z" fill="black"/>
<path d="M237.111 96.0166C237.111 96.0166 244.092 97.2121 244.685 97.3718C245.279 97.5315 247.61 98.6358 247.729 99.3476C247.848 100.059 247.729 102.154 247.729 102.154C247.729 102.154 247.309 102.496 247.045 101.812C246.78 101.127 246.821 99.772 246.821 99.772L245.516 99.2701L246.228 100.534L246.346 103.495C246.346 103.495 245.434 103.413 245.26 102.702C245.082 101.994 245.087 101.2 245.087 101.2L244.138 100.393L244.85 101.355L245.092 103.491C245.092 103.491 244.398 103.715 244.179 103.24C243.96 102.765 243.942 101.355 243.942 101.355L241.259 100.42L239.484 101.41L236.691 99.8815L237.111 96.0166Z" fill="#FFBE9D"/>
<path d="M247.989 86.2882C247.989 89.1173 246.688 91.408 245.087 91.408C243.485 91.408 242.185 89.1173 242.185 86.2882C242.185 83.4591 243.485 81.1685 245.087 81.1685C246.688 81.1685 247.989 83.4637 247.989 86.2882Z" fill="black"/>
<path d="M245.562 89.8064L247.154 95.3323C247.866 94.9718 248.017 94.26 247.898 93.6987C247.497 91.805 247.273 90.4589 246.83 88.798C246.78 88.6383 245.562 89.8064 245.562 89.8064Z" fill="black"/>
<g opacity="0.4">
<g opacity="0.4">
<path opacity="0.4" d="M213.994 156.719C213.834 156.263 213.674 155.798 213.524 155.319C213.382 154.871 213.214 154.41 213.095 153.968C212.876 153.174 212.748 152.357 212.698 151.887C210.006 162.848 214.117 170.564 221.172 171.107C231.48 171.901 244.051 172.476 249.134 171.143C258.402 168.711 261.801 160.986 262.613 159.708C263.426 158.435 270.795 144.96 266.278 131.988C261.76 119.015 253.884 105.239 253.884 105.239L246.378 107.739C246.378 107.739 247.751 114.146 249.928 121.812C252.319 130.24 255.522 143.423 255.344 151.134C255.167 158.846 251.041 164.043 251.041 164.043H216.974C216.969 164.039 216.239 163.308 213.994 156.719Z" fill="black"/>
</g>
</g>
<path d="M141.702 150.883L141.943 148.282L204.129 155.446C207.638 155.857 210.079 159.138 209.463 162.619L209.185 164.194L144.823 154.839C142.893 154.561 141.519 152.822 141.702 150.883Z" fill="#FEC54B"/>
<g opacity="0.6">
<g opacity="0.6">
<path opacity="0.6" d="M141.702 150.883L141.943 148.282L204.129 155.446C207.638 155.857 210.079 159.138 209.463 162.619L209.185 164.194L144.823 154.839C142.893 154.561 141.519 152.822 141.702 150.883Z" fill="black"/>
</g>
</g>
<g opacity="0.3">
<g opacity="0.3">
<g opacity="0.3">
<path opacity="0.3" d="M262.614 168.278C262.614 168.278 276.303 153.22 279.128 141.383C280.077 141.374 282.285 141.47 283.367 141.698C283.362 141.698 275.267 163.705 262.614 168.278Z" fill="black"/>
</g>
</g>
</g>
<path d="M278.927 136.081C278.936 136.081 278.959 136.208 279 136.459C279.036 136.71 279.109 137.08 279.155 137.559C279.242 138.517 279.301 139.932 279.05 141.648C278.804 143.363 278.215 145.362 277.243 147.434C276.294 149.514 274.98 151.663 273.62 153.913C270.878 158.426 267.825 162.113 265.607 164.75C264.494 166.065 263.572 167.114 262.933 167.84C262.623 168.186 262.376 168.46 262.194 168.666C262.021 168.853 261.929 168.948 261.925 168.944C261.92 168.939 261.998 168.834 262.157 168.634C262.331 168.424 262.568 168.136 262.865 167.776C263.499 167.018 264.384 165.95 265.479 164.641C267.665 161.981 270.686 158.28 273.419 153.79C274.784 151.54 276.093 149.405 277.047 147.342C278.023 145.289 278.621 143.318 278.886 141.625C279.159 139.927 279.128 138.531 279.064 137.573C279.032 137.094 278.972 136.724 278.954 136.468C278.927 136.213 278.918 136.081 278.927 136.081Z" fill="black"/>
<path d="M255.258 168.168C255.212 168.214 254.231 167.329 253.068 166.188C251.904 165.047 250.996 164.084 251.042 164.039C251.087 163.993 252.068 164.878 253.237 166.019C254.4 167.16 255.308 168.123 255.258 168.168Z" fill="black"/>
<path d="M214.633 167.707C214.578 167.68 214.952 166.763 215.637 165.759C216.317 164.75 217.033 164.061 217.074 164.107C217.124 164.153 216.499 164.901 215.833 165.896C215.162 166.881 214.697 167.735 214.633 167.707Z" fill="black"/>
<path d="M188.331 176.4C188.277 176.354 189.312 175.693 190.198 174.027C190.64 173.206 191.001 172.133 191.115 170.901C191.229 169.679 191.051 168.291 190.449 167.005C189.823 165.727 188.861 164.718 187.839 164.034C186.812 163.345 185.753 162.953 184.836 162.779C182.983 162.419 181.82 162.811 181.82 162.738C181.82 162.729 181.888 162.711 182.025 162.679C182.162 162.651 182.358 162.588 182.623 162.565C183.148 162.483 183.928 162.46 184.868 162.619C185.808 162.775 186.903 163.162 187.962 163.856C189.02 164.545 190.02 165.581 190.663 166.904C191.284 168.237 191.457 169.665 191.329 170.924C191.206 172.184 190.814 173.279 190.344 174.109C189.878 174.94 189.367 175.533 188.97 175.889C188.783 176.081 188.61 176.19 188.5 176.281C188.395 176.363 188.336 176.404 188.331 176.4Z" fill="black"/>
<path d="M165.621 171.631C165.557 171.636 165.456 170.65 165.397 169.437C165.338 168.223 165.347 167.237 165.411 167.233C165.475 167.228 165.575 168.209 165.634 169.428C165.694 170.641 165.689 171.631 165.621 171.631Z" fill="black"/>
<path d="M167.273 171.636C167.209 171.645 167.031 170.664 166.876 169.45C166.72 168.232 166.647 167.242 166.711 167.233C166.775 167.224 166.953 168.205 167.108 169.423C167.263 170.632 167.336 171.627 167.273 171.636Z" fill="black"/>
<path d="M192.918 129.432C192.918 129.496 185.357 129.551 176.034 129.551C166.707 129.551 159.146 129.496 159.146 129.432C159.146 129.368 166.707 129.313 176.034 129.313C185.357 129.313 192.918 129.368 192.918 129.432Z" fill="black"/>
<path d="M168.431 129.409C168.368 129.409 168.313 120.749 168.313 110.071C168.313 99.3887 168.368 90.728 168.431 90.728C168.495 90.728 168.55 99.3842 168.55 110.071C168.55 120.749 168.5 129.409 168.431 129.409Z" fill="black"/>
<path d="M163.805 129.377C163.741 129.373 164.065 120.721 164.526 110.048C164.991 99.3751 165.42 90.7235 165.484 90.728C165.548 90.7326 165.224 99.3842 164.763 110.057C164.297 120.73 163.869 129.382 163.805 129.377Z" fill="black"/>
<path d="M153.333 182.149C153.328 182.154 153.259 182.086 153.132 181.949C153.009 181.807 152.817 181.611 152.598 181.333C152.146 180.79 151.544 179.959 150.914 178.859C149.655 176.683 148.404 173.279 148.418 169.387C148.436 165.49 149.714 162.099 150.992 159.932C151.63 158.837 152.242 158.011 152.694 157.472C152.913 157.194 153.109 157.002 153.232 156.861C153.36 156.724 153.428 156.656 153.433 156.66C153.437 156.665 153.383 156.747 153.269 156.893C153.159 157.043 152.972 157.244 152.767 157.527C152.338 158.084 151.749 158.919 151.138 160.014C149.906 162.186 148.669 165.54 148.655 169.387C148.642 173.229 149.846 176.596 151.06 178.777C151.662 179.877 152.242 180.717 152.671 181.278C152.876 181.565 153.059 181.771 153.168 181.917C153.282 182.063 153.337 182.14 153.333 182.149Z" fill="black"/>
<path d="M218.704 147.383L218.562 147.652L215.815 152.822L211.964 156.532L219.662 166.781L226.078 165.718C226.078 165.718 225.357 164.253 222.14 163.97L220.908 157.846L225.43 150.837" fill="black"/>
<path d="M211.964 156.527L219.657 166.776L226.073 165.713L225.192 164.869L219.926 165.444L212.78 155.738L211.964 156.527Z" fill="#E0E0E0"/>
<path d="M221.624 161.15C221.587 161.223 221.181 161.077 220.688 161.173C220.191 161.255 219.867 161.538 219.803 161.478C219.734 161.442 220.031 160.995 220.633 160.89C221.24 160.776 221.674 161.09 221.624 161.15Z" fill="black"/>
<path d="M221.268 159.64C221.213 159.694 220.862 159.366 220.337 159.352C219.808 159.334 219.438 159.64 219.388 159.58C219.36 159.553 219.415 159.434 219.579 159.307C219.739 159.179 220.018 159.056 220.346 159.065C220.675 159.074 220.944 159.215 221.094 159.357C221.245 159.494 221.295 159.617 221.268 159.64Z" fill="black"/>
<path d="M220.98 157.673C220.916 157.718 220.634 157.385 220.164 157.308C219.694 157.221 219.315 157.44 219.269 157.372C219.246 157.344 219.315 157.239 219.479 157.143C219.643 157.048 219.913 156.97 220.214 157.025C220.51 157.08 220.738 157.239 220.862 157.385C220.985 157.531 221.012 157.65 220.98 157.673Z" fill="black"/>
<path d="M222.445 155.866C222.372 155.907 222.13 155.569 221.692 155.378C221.259 155.172 220.848 155.213 220.83 155.136C220.798 155.067 221.273 154.871 221.811 155.117C222.349 155.355 222.523 155.843 222.445 155.866Z" fill="black"/>
<path d="M223.061 154.41C223.033 154.438 222.778 154.214 222.39 153.831C222.171 153.607 221.947 153.379 221.719 153.151C221.6 153.014 221.45 152.904 221.336 152.681C221.281 152.567 221.263 152.425 221.308 152.284C221.349 152.138 221.518 152.019 221.66 152.019C221.947 152.015 222.125 152.133 222.312 152.229C222.49 152.339 222.645 152.471 222.778 152.608C223.038 152.891 223.188 153.206 223.266 153.479C223.421 154.036 223.289 154.392 223.266 154.378C223.216 154.374 223.266 154.031 223.074 153.543C222.978 153.301 222.823 153.032 222.586 152.79C222.467 152.672 222.326 152.562 222.171 152.471C222.02 152.384 221.824 152.293 221.687 152.302C221.623 152.311 221.596 152.334 221.578 152.38C221.559 152.43 221.564 152.503 221.591 152.562C221.651 152.695 221.797 152.831 221.915 152.968C222.13 153.215 222.335 153.452 222.54 153.689C222.887 154.109 223.092 154.383 223.061 154.41Z" fill="black"/>
<path d="M223.325 154.561C223.294 154.565 223.262 154.223 223.545 153.781C223.823 153.361 224.498 152.845 225.388 153.124C225.456 153.165 225.516 153.247 225.525 153.338C225.534 153.429 225.511 153.498 225.479 153.552C225.42 153.667 225.342 153.726 225.283 153.794C225.151 153.922 225.014 154.036 224.872 154.127C224.594 154.314 224.311 154.433 224.069 154.502C223.581 154.638 223.262 154.593 223.266 154.561C223.262 154.515 223.567 154.488 224.005 154.31C224.224 154.223 224.475 154.095 224.722 153.908C224.845 153.817 224.968 153.712 225.087 153.594C225.146 153.53 225.205 153.47 225.228 153.42C225.251 153.361 225.247 153.375 225.233 153.361C225.21 153.343 225.119 153.329 225.037 153.324C224.955 153.32 224.872 153.32 224.795 153.329C224.635 153.343 224.484 153.384 224.343 153.438C224.065 153.548 223.855 153.726 223.709 153.904C223.417 154.26 223.371 154.57 223.325 154.561Z" fill="black"/>
<path d="M217.047 155.483C217.115 155.902 216.832 156.299 216.412 156.372C215.993 156.441 215.596 156.158 215.523 155.738C215.454 155.318 215.737 154.921 216.157 154.848C216.577 154.78 216.974 155.063 217.047 155.483Z" fill="#E0E0E0"/>
<path d="M242.067 152.311L244.125 165.672L260.762 163.199C260.428 161.624 251.343 159.713 251.343 159.713L250.376 151.097L242.067 152.311Z" fill="black"/>
<path d="M246.096 159.758C245.785 159.895 245.617 160.287 245.74 160.602C245.863 160.917 246.265 161.091 246.575 160.963C246.885 160.83 247.104 160.365 246.944 160.064C246.785 159.767 246.306 159.585 246.036 159.785" fill="#E0E0E0"/>
<path d="M244.124 165.672L243.969 164.317L259.981 162.45C259.981 162.45 260.77 162.66 260.766 163.199L244.124 165.672Z" fill="#E0E0E0"/>
<path d="M251.603 159.589C251.613 159.671 251.211 159.767 250.85 160.091C250.481 160.402 250.326 160.785 250.248 160.762C250.171 160.757 250.221 160.256 250.663 159.872C251.101 159.489 251.608 159.512 251.603 159.589Z" fill="black"/>
<path d="M253.456 160.05C253.488 160.128 253.155 160.315 252.931 160.703C252.694 161.081 252.68 161.465 252.598 161.469C252.525 161.492 252.397 161.027 252.685 160.552C252.967 160.077 253.442 159.972 253.456 160.05Z" fill="black"/>
<path d="M254.756 161.989C254.683 162.017 254.51 161.629 254.656 161.154C254.793 160.675 255.153 160.443 255.195 160.506C255.249 160.566 255.039 160.84 254.93 161.237C254.807 161.624 254.839 161.971 254.756 161.989Z" fill="black"/>
<path d="M251.166 157.65C251.143 157.728 250.755 157.673 250.299 157.773C249.842 157.865 249.509 158.07 249.454 158.006C249.4 157.956 249.701 157.6 250.239 157.49C250.778 157.376 251.193 157.577 251.166 157.65Z" fill="black"/>
<path d="M250.477 155.733C250.481 155.765 250.171 155.866 249.642 155.852C249.382 155.848 249.067 155.806 248.729 155.715C248.56 155.67 248.387 155.61 248.213 155.533C248.131 155.496 248.031 155.46 247.93 155.373C247.826 155.3 247.743 155.095 247.83 154.949C247.899 154.807 248.04 154.73 248.159 154.711C248.282 154.689 248.382 154.698 248.478 154.707C248.67 154.725 248.852 154.762 249.021 154.807C249.359 154.903 249.646 155.049 249.865 155.195C250.303 155.496 250.481 155.779 250.454 155.797C250.422 155.829 250.194 155.601 249.76 155.368C249.541 155.25 249.267 155.136 248.953 155.058C248.793 155.022 248.629 154.994 248.451 154.981C248.268 154.962 248.118 154.981 248.086 155.067C248.072 155.099 248.072 155.113 248.118 155.159C248.163 155.2 248.241 155.236 248.323 155.273C248.483 155.346 248.647 155.409 248.802 155.46C249.112 155.56 249.404 155.619 249.655 155.647C250.153 155.715 250.468 155.688 250.477 155.733Z" fill="black"/>
<path d="M250.385 155.866C250.358 155.884 250.153 155.615 250.048 155.095C249.993 154.834 249.975 154.515 250.025 154.164C250.052 153.99 250.093 153.808 250.162 153.625C250.235 153.447 250.321 153.21 250.632 153.123C250.796 153.091 250.951 153.201 251.015 153.306C251.088 153.411 251.111 153.507 251.147 153.598C251.207 153.79 251.229 153.977 251.229 154.159C251.229 154.52 251.129 154.839 251.001 155.072C250.741 155.551 250.417 155.697 250.404 155.674C250.372 155.638 250.632 155.437 250.819 154.985C250.91 154.761 250.978 154.479 250.965 154.164C250.96 154.009 250.933 153.844 250.878 153.685C250.828 153.511 250.737 153.379 250.673 153.406C250.591 153.415 250.467 153.57 250.422 153.721C250.358 153.881 250.312 154.045 250.28 154.205C250.221 154.52 250.216 154.816 250.244 155.058C250.299 155.555 250.431 155.847 250.385 155.866Z" fill="black"/>
<path d="M228.975 120.926L214.701 152.019L224.129 157.677L243.855 120.265" fill="black"/>
<path d="M252.502 158.385L242.263 160.027L236.135 123.459L205.859 125.654C205.055 125.704 204.248 125.635 203.472 125.421C194.966 123.089 196.121 112.252 196.938 110.513L238.831 109.309C243.376 109.176 247.291 112.485 247.921 116.988L252.502 158.385Z" fill="black"/>
<path d="M196.527 112.234L196.677 96.774C196.677 96.774 194.683 86.7215 194.09 82.7699C193.173 76.6325 191.918 73.7213 201.966 69.359L204.161 68.5103L207.56 68.5559C211.617 68.8616 215.888 72.5258 215.984 74.9579L219.894 109.797L196.527 112.234Z" fill="#FEC54B"/>
<path d="M197.157 72.9546C197.157 72.9546 194.323 79.06 194.889 84.6224L205.462 94.7707C207.835 97.4081 210.796 98.5306 214.588 98.7588L236.463 101.15L237.07 95.4277L216.258 89.5323C215.432 89.3817 215.017 88.5147 214.383 87.9626L197.157 72.9546Z" fill="#FEC54B"/>
<path d="M195.45 74.7161C195.45 74.7161 195.569 74.5837 195.87 74.4331C196.171 74.2871 196.645 74.1365 197.284 74.0362C197.919 73.9449 198.722 73.8764 199.648 74.0407C199.876 74.0955 200.118 74.1502 200.342 74.278C200.561 74.4058 200.771 74.5563 200.985 74.7161C201.409 75.0446 201.834 75.4188 202.263 75.834C203.139 76.6508 203.969 77.6866 204.941 78.7361C205.909 79.7902 206.976 80.9127 208.135 82.0946C209.29 83.2764 210.535 84.513 211.872 85.7906C212.543 86.4249 213.232 87.0729 213.962 87.7071C214.332 88.0129 214.697 88.3688 215.048 88.7019C215.404 89.0304 215.81 89.3362 216.276 89.4229H216.28H216.285C222.472 91.1705 229.573 93.1783 237.097 95.3092L237.193 95.3366L237.184 95.437C237.143 95.8431 237.093 96.2812 237.047 96.7192C236.887 98.2387 236.728 99.7445 236.577 101.159L236.563 101.278L236.445 101.264C233.264 100.913 230.166 100.575 227.186 100.246C225.694 100.082 224.234 99.9225 222.806 99.7628C221.373 99.6168 219.976 99.4753 218.612 99.3384C217.248 99.1878 215.924 99.0327 214.642 98.8456C213.36 98.6585 212.114 98.4212 210.969 97.9923C209.819 97.5725 208.792 96.9702 207.871 96.3314C206.944 95.688 206.105 95.0172 205.315 94.3555C202.19 91.6861 199.894 89.3042 198.302 87.6798C197.512 86.863 196.906 86.2196 196.499 85.7815C196.303 85.5671 196.153 85.3982 196.043 85.2796C195.943 85.1655 195.893 85.1016 195.893 85.1016C195.893 85.1016 195.952 85.1518 196.057 85.2613C196.171 85.3754 196.326 85.5397 196.531 85.7496C196.956 86.1831 197.572 86.8128 198.361 87.6204C199.972 89.2266 202.285 91.5903 205.416 94.2369C206.205 94.8894 207.049 95.5556 207.971 96.1899C208.888 96.8242 209.901 97.4128 211.033 97.8189C212.165 98.2387 213.392 98.4669 214.674 98.6494C215.952 98.8319 217.275 98.9871 218.64 99.1331C220.004 99.27 221.4 99.4069 222.833 99.5483C224.261 99.7035 225.726 99.8632 227.214 100.023C230.193 100.347 233.292 100.685 236.477 101.031L236.344 101.136C236.495 99.7217 236.655 98.2159 236.814 96.6964C236.86 96.2583 236.906 95.8203 236.951 95.4142L237.038 95.5419C229.513 93.4064 222.418 91.3895 216.23 89.6328L216.239 89.6373C215.701 89.5369 215.272 89.1993 214.907 88.8616C214.537 88.5102 214.204 88.1817 213.825 87.8668C213.095 87.228 212.402 86.5755 211.731 85.9367C210.399 84.6544 209.157 83.4087 208.003 82.2223C206.853 81.0359 205.79 79.9088 204.823 78.8456C203.851 77.787 203.034 76.7512 202.171 75.9344C201.747 75.5192 201.327 75.1404 200.912 74.8164C200.702 74.6567 200.497 74.5016 200.287 74.3784C200.081 74.2552 199.844 74.2004 199.625 74.1457C198.722 73.9723 197.919 74.0316 197.289 74.1092C196.655 74.1959 196.18 74.3328 195.879 74.4696C195.582 74.602 195.455 74.7252 195.45 74.7161Z" fill="black"/>
<path d="M200.907 55.104L201.97 70.153C202.144 72.608 204.188 74.5153 206.652 74.5153C209.363 74.5153 211.512 72.2201 211.334 69.5142C211.238 68.0814 211.156 66.9087 211.156 66.9087C211.156 66.9087 214.797 66.3429 214.843 62.7015C214.87 60.5979 214.505 55.825 214.195 52.1654C213.985 49.6922 211.913 47.7939 209.431 47.7939H207.232C203.44 48.0175 200.583 51.3258 200.907 55.104Z" fill="#FFBE9D"/>
<path d="M211.161 66.8585C211.161 66.8585 208.856 67.0456 206.411 65.5078C206.411 65.5078 207.533 68.1316 211.17 67.803L211.161 66.8585Z" fill="#EB996E"/>
<path d="M213.373 56.8471C213.383 57.1209 213.159 57.3582 212.871 57.3718C212.584 57.3855 212.347 57.1756 212.333 56.9018C212.324 56.6281 212.548 56.3908 212.835 56.3771C213.122 56.3634 213.364 56.5733 213.373 56.8471Z" fill="black"/>
<path d="M213.565 55.8203C213.501 55.8887 213.109 55.5967 212.548 55.5967C211.986 55.5921 211.576 55.8796 211.516 55.8111C211.484 55.7792 211.553 55.6606 211.731 55.5282C211.909 55.4005 212.205 55.2727 212.557 55.2727C212.904 55.2727 213.2 55.405 213.369 55.5328C213.538 55.6697 213.597 55.7883 213.565 55.8203Z" fill="black"/>
<path d="M208.117 56.8471C208.126 57.1209 207.903 57.3582 207.615 57.3718C207.328 57.3855 207.09 57.1756 207.077 56.9018C207.068 56.6281 207.291 56.3908 207.579 56.3771C207.866 56.3634 208.108 56.5733 208.117 56.8471Z" fill="black"/>
<path d="M208.062 55.9253C207.998 55.9937 207.601 55.7017 207.044 55.7017C206.483 55.6971 206.073 55.9846 206.013 55.9161C205.981 55.8842 206.05 55.7655 206.228 55.6332C206.406 55.5055 206.702 55.3777 207.054 55.3777C207.4 55.3777 207.697 55.51 207.866 55.6378C208.035 55.7701 208.094 55.8933 208.062 55.9253Z" fill="black"/>
<path d="M210.093 60.0775C210.088 60.0456 210.44 59.9863 211.001 59.9132C211.142 59.8996 211.279 59.8722 211.302 59.7718C211.334 59.6668 211.275 59.5163 211.206 59.3474C211.074 59.0006 210.932 58.6401 210.782 58.2569C210.193 56.7054 209.769 55.4323 209.833 55.4095C209.897 55.3867 210.421 56.6233 211.01 58.1747C211.152 58.558 211.288 58.9231 211.416 59.2699C211.471 59.4341 211.562 59.6166 211.489 59.8311C211.453 59.9361 211.348 60.0136 211.252 60.041C211.161 60.0684 211.078 60.0684 211.01 60.073C210.449 60.1049 210.097 60.1095 210.093 60.0775Z" fill="black"/>
<path d="M208.445 60.4654C208.537 60.4609 208.537 61.0678 209.057 61.5013C209.577 61.9347 210.225 61.8663 210.23 61.9484C210.239 61.9849 210.084 62.0671 209.81 62.0716C209.541 62.0808 209.148 61.9941 208.833 61.7294C208.514 61.4647 208.382 61.1134 208.359 60.8624C208.336 60.6115 208.404 60.4609 208.445 60.4654Z" fill="black"/>
<path d="M208.208 53.7306C208.154 53.8811 207.592 53.8127 206.935 53.8903C206.278 53.9541 205.749 54.1504 205.662 54.0135C205.621 53.9496 205.717 53.8036 205.931 53.6575C206.141 53.5115 206.483 53.3701 206.876 53.3244C207.268 53.2834 207.633 53.3427 207.871 53.4431C208.113 53.5389 208.231 53.6575 208.208 53.7306Z" fill="black"/>
<path d="M213.36 54.2005C213.259 54.3283 212.876 54.196 212.41 54.1914C211.945 54.1686 211.553 54.2781 211.466 54.1458C211.425 54.0819 211.489 53.9541 211.658 53.8355C211.826 53.7168 212.109 53.6165 212.429 53.6256C212.748 53.6347 213.022 53.7488 213.186 53.8811C213.35 54.0089 213.405 54.1366 213.36 54.2005Z" fill="black"/>
<path d="M202.134 57.8419C202.071 57.8145 199.629 57.1027 199.711 59.5941C199.789 62.0855 202.276 61.4923 202.276 61.4193C202.281 61.3418 202.134 57.8419 202.134 57.8419Z" fill="#FFBE9D"/>
<path d="M201.486 60.4977C201.477 60.4886 201.445 60.5297 201.372 60.5662C201.304 60.6027 201.181 60.6255 201.048 60.5844C200.784 60.4977 200.546 60.087 200.519 59.6353C200.505 59.4071 200.546 59.1927 200.619 59.0102C200.688 58.8276 200.802 58.6953 200.934 58.6679C201.067 58.6314 201.162 58.709 201.194 58.7774C201.231 58.8459 201.217 58.8961 201.231 58.9006C201.24 58.9052 201.281 58.855 201.258 58.7546C201.245 58.7044 201.217 58.6497 201.153 58.5995C201.094 58.5538 201.003 58.531 200.911 58.5447C200.72 58.563 200.551 58.7455 200.469 58.9463C200.378 59.147 200.327 59.3889 200.341 59.6444C200.373 60.1464 200.647 60.6072 201.007 60.6985C201.185 60.7396 201.327 60.6802 201.4 60.6209C201.482 60.557 201.496 60.5023 201.486 60.4977Z" fill="#EB996E"/>
<path d="M200.752 57.7552C201.131 57.6639 201.788 58.0153 201.952 58.3712C202.116 58.7271 202.148 59.1287 202.312 59.4846C202.472 59.8405 202.837 60.1645 203.22 60.0732C203.481 60.0094 203.672 59.7675 203.741 59.5029C203.809 59.2428 203.782 58.969 203.75 58.6998C203.604 57.5362 203.357 56.3817 203.312 55.2136C203.266 54.0409 203.43 52.8271 204.046 51.8278C204.662 50.8285 205.789 50.0938 206.958 50.1896C207.733 50.2535 208.441 50.6551 209.212 50.7646C210.124 50.8923 211.087 50.5684 211.74 49.9204C211.822 49.8383 212.214 49.5827 212.214 49.5827C212.214 49.5234 212.16 49.0032 211.954 48.8116C210.43 47.4016 207.679 47.0092 205.666 47.5157C203.649 48.0222 201.76 49.4458 200.893 51.335C200.017 53.2195 200.273 55.8433 200.752 57.7552Z" fill="black"/>
<path d="M214.235 51.6041C214.235 51.6041 204.68 48.5286 200.546 56.7969C200.546 56.7969 199.93 54.7298 199.93 53.621C199.93 52.8818 200.373 48.4693 204.913 47.0821C204.908 47.0821 211.749 44.472 214.235 51.6041Z" fill="#FEC54B"/>
<path d="M206.023 51.8142C206.36 52.3618 206.963 52.7314 207.601 52.7907C208.24 52.85 208.902 52.5899 209.331 52.1153C209.518 52.5853 210.024 52.9093 210.531 52.8819C211.037 52.8546 211.507 52.4804 211.644 51.9921C211.923 52.2614 212.21 52.5397 212.575 52.672C212.94 52.8044 213.397 52.7542 213.638 52.4484C213.88 52.1382 213.812 51.6682 213.574 51.3533C213.337 51.0385 212.968 50.8514 212.607 50.7008C211.471 50.2262 210.221 49.989 209.002 50.1532C207.784 50.3175 206.602 50.9107 205.84 51.8735" fill="black"/>
<g opacity="0.4">
<g opacity="0.4">
<g opacity="0.4">
<g opacity="0.4">
<path opacity="0.4" d="M214.235 51.6042C214.235 51.6042 213.149 50.3083 211.196 50.2262C208.376 50.103 203.102 51.6864 200.546 56.8016C200.546 56.8016 199.93 54.7345 199.93 53.6257C199.93 52.8865 200.373 48.474 204.913 47.0868C204.908 47.0822 211.749 44.4721 214.235 51.6042Z" fill="black"/>
</g>
</g>
</g>
</g>
<path d="M200.944 55.8296C202.363 53.6621 204.316 51.8688 206.511 50.4953C208.706 49.1218 212.338 47.7666 214.843 47.1004C215.596 46.8996 216.376 46.7262 217.143 46.8586C217.909 46.9909 218.658 47.502 218.849 48.2549C219.087 49.1994 217.412 50.655 216.627 51.2254C215.842 51.7958 214.236 52.64 214.236 52.64C214.236 52.64 214.259 50.8878 211.457 50.5273C207.642 50.0436 200.944 55.8296 200.944 55.8296Z" fill="#FEC54B"/>
<g opacity="0.3">
<g opacity="0.3">
<g opacity="0.3">
<path opacity="0.3" d="M197.581 86.8813C198.567 89.2587 199.561 92.1928 200.99 94.3329C202.418 96.4729 204.325 98.3712 206.703 99.3659C209.682 100.612 213.21 100.817 216.176 99.5348C216.417 99.4298 216.892 99.2975 216.846 99.0374C216.846 99.0374 215.865 98.9279 215.56 98.8777C209.564 97.8647 208.916 97.1255 206.046 94.8576C204.257 93.4476 200.292 89.172 197.581 86.8813Z" fill="black"/>
</g>
</g>
</g>
<path d="M216.632 104.194C216.646 104.198 216.568 104.403 216.381 104.75C216.198 105.097 215.884 105.576 215.414 106.101C214.483 107.16 212.831 108.305 210.768 108.939C208.71 109.573 206.757 109.687 205.366 109.747C204.668 109.774 204.102 109.779 203.714 109.779C203.321 109.779 203.107 109.77 203.107 109.751C203.107 109.733 203.321 109.715 203.709 109.687C204.147 109.66 204.699 109.624 205.357 109.583C206.739 109.482 208.674 109.336 210.7 108.716C212.721 108.09 214.35 106.995 215.29 105.987C216.249 104.983 216.586 104.166 216.632 104.194Z" fill="black"/>
<path d="M242.45 161.118C242.445 161.118 242.432 161.072 242.413 160.977C242.391 160.872 242.363 160.73 242.331 160.557C242.263 160.174 242.162 159.631 242.039 158.937C241.793 157.513 241.437 155.483 241.003 152.978C240.15 147.931 238.973 140.981 237.672 133.306C237.093 129.834 236.541 126.507 236.034 123.473L236.153 123.564C230.837 123.952 226.288 124.285 223.052 124.522C221.455 124.632 220.182 124.718 219.292 124.778C218.868 124.801 218.535 124.823 218.288 124.837C218.183 124.842 218.097 124.846 218.028 124.846C217.969 124.846 217.942 124.846 217.942 124.842C217.942 124.837 217.969 124.832 218.028 124.823C218.097 124.814 218.183 124.805 218.284 124.796C218.526 124.773 218.859 124.741 219.283 124.7C220.173 124.623 221.446 124.518 223.039 124.381C226.269 124.125 230.814 123.76 236.13 123.336L236.23 123.327L236.249 123.427C236.76 126.457 237.321 129.783 237.905 133.256C239.178 140.936 240.333 147.89 241.168 152.941C241.574 155.451 241.902 157.486 242.131 158.91C242.235 159.603 242.322 160.146 242.381 160.534C242.404 160.712 242.427 160.849 242.441 160.958C242.45 161.068 242.45 161.118 242.45 161.118Z" fill="black"/>
<path d="M239.21 120.201C239.251 120.256 238.457 120.94 237.549 121.862C236.641 122.779 235.97 123.591 235.915 123.546C235.865 123.509 236.458 122.624 237.38 121.693C238.302 120.762 239.173 120.151 239.21 120.201Z" fill="black"/>
<path d="M211.243 69.8382C211.252 69.8382 211.27 69.8884 211.298 69.9888C211.33 70.0892 211.357 70.2397 211.384 70.436C211.43 70.8284 211.407 71.4216 211.161 72.0969C210.914 72.7631 210.435 73.5115 209.66 74.0727C208.888 74.634 207.821 74.926 206.73 74.853C205.635 74.78 204.631 74.3693 203.887 73.7898C203.134 73.2149 202.619 72.5213 202.272 71.9053C201.93 71.2801 201.747 70.7371 201.656 70.3538C201.61 70.1622 201.578 70.0116 201.565 69.9112C201.551 69.8108 201.546 69.7561 201.556 69.7515C201.606 69.7332 201.72 70.623 202.423 71.8231C202.778 72.4118 203.294 73.0734 204.024 73.6164C204.745 74.164 205.708 74.5473 206.753 74.6203C207.793 74.6887 208.802 74.415 209.541 73.8948C210.285 73.3791 210.759 72.6719 211.015 72.0376C211.266 71.3988 211.321 70.8284 211.302 70.4451C211.275 70.0572 211.216 69.8473 211.243 69.8382Z" fill="black"/>
<path d="M217.677 89.7652C217.658 89.7652 217.626 89.5963 217.581 89.2906C217.531 88.9301 217.467 88.4966 217.398 87.9856C217.248 86.822 217.051 85.3253 216.837 83.6735C216.632 81.9851 216.467 80.4565 216.367 79.3477C216.317 78.791 216.28 78.3438 216.262 78.0335C216.244 77.7232 216.239 77.5498 216.257 77.5498C216.276 77.5498 216.308 77.7186 216.353 78.0244C216.403 78.3849 216.463 78.8183 216.531 79.3294C216.677 80.493 216.864 81.9897 217.07 83.6461C217.275 85.3299 217.458 86.8585 217.563 87.9673C217.617 88.524 217.654 88.9712 217.672 89.2815C217.69 89.5918 217.695 89.7652 217.677 89.7652Z" fill="black"/>
</svg>
