<svg width="132" height="197" viewBox="0 0 132 197" fill="none" xmlns="http://www.w3.org/2000/svg">
<path d="M79.5855 120.932L43.8195 81L10.1806 122.753C-13.8527 152.588 7.36054 197 45.6579 197C85.0717 197 105.9 150.305 79.5855 120.932ZM45.6579 186.47C16.9084 186.47 0.988887 153.138 19.0259 130.739L44.2719 99.4005L71.1253 129.371C90.8755 151.423 75.2447 186.47 45.6579 186.47Z" fill="#FBFBFB"/>
<path d="M95.4429 10.6296C61.0043 19.1377 47.1184 54.3814 44.4803 70.9398C52.1003 48.2062 83.5899 37.8117 98.3822 35.4562C109.526 30.9145 112.195 24.8251 112.136 22.3481C111.553 11.3001 100.764 9.9324 95.4429 10.6296Z" fill="#12B76A"/>
<path d="M122.941 59.1778C91.4242 42.8954 57.7617 60.2671 44.87 70.9883C65.5776 58.9022 96.1177 71.8229 108.799 79.794C120.175 83.7167 126.195 80.893 127.782 78.9909C134.621 70.2941 127.404 62.1585 122.941 59.1778Z" fill="#12B76A"/>
</svg>
