<svg width="24" height="24" viewBox="0 0 24 24" fill="none" xmlns="http://www.w3.org/2000/svg">
<path d="M21.8573 18.4858C20.0733 15.5109 18.9999 14.212 18.9999 11C18.9981 9.31756 18.3908 7.692 17.2891 6.42046C16.1874 5.14893 14.6649 4.31636 12.9999 4.07497V3.99997C12.9999 3.73475 12.8946 3.4804 12.707 3.29286C12.5195 3.10533 12.2651 2.99997 11.9999 2.99997C11.7347 2.99997 11.4803 3.10533 11.2928 3.29286C11.1053 3.4804 10.9999 3.73475 10.9999 3.99997V4.07917C9.32459 4.39641 7.81104 5.28459 6.71703 6.59244C5.62301 7.9003 5.01619 9.54695 4.99991 11.252C4.99991 14.212 3.73791 15.826 2.14251 18.4859C2.05157 18.6376 2.00251 18.8107 2.00032 18.9876C1.99814 19.1645 2.04291 19.3388 2.13008 19.4927C2.21724 19.6467 2.34368 19.7747 2.49649 19.8638C2.6493 19.9529 2.82302 19.9999 2.99991 20H20.9999C21.1768 19.9999 21.3506 19.9529 21.5034 19.8638C21.6562 19.7747 21.7827 19.6466 21.8698 19.4927C21.957 19.3388 22.0018 19.1644 21.9996 18.9875C21.9974 18.8106 21.9483 18.6375 21.8573 18.4858Z" fill="#384144"/>
<path d="M14 21H10C9.73481 21 9.48046 21.1054 9.29292 21.2929C9.10539 21.4804 9.00003 21.7348 9.00003 22C9.00003 22.2652 9.10539 22.5196 9.29292 22.7071C9.48046 22.8947 9.73481 23 10 23H14C14.2652 23 14.5196 22.8947 14.7071 22.7071C14.8947 22.5196 15 22.2652 15 22C15 21.7348 14.8947 21.4804 14.7071 21.2929C14.5196 21.1054 14.2652 21 14 21Z" fill="#384144"/>
</svg>
